<?xml version="1.0" encoding="UTF-8"?>
<!DOCTYPE svg PUBLIC "-//W3C//DTD SVG 1.1//EN" "http://www.w3.org/Graphics/SVG/1.1/DTD/svg11.dtd">
<svg xmlns="http://www.w3.org/2000/svg" version="1.1" width="96px" height="96px" style="shape-rendering:geometricPrecision; text-rendering:geometricPrecision; image-rendering:optimizeQuality; fill-rule:evenodd; clip-rule:evenodd" xmlns:xlink="http://www.w3.org/1999/xlink">
<g><path style="opacity:0.933" fill="#b8211f" d="M 67.5,25.5 C 67.369,26.2389 67.5357,26.9056 68,27.5C 71.3325,30.0017 74.4992,32.6684 77.5,35.5C 80.5008,38.3316 83.6675,40.9983 87,43.5C 87.009,46.35 85.8423,48.6833 83.5,50.5C 71.8489,38.8503 59.8489,27.517 47.5,16.5C 35.1511,27.517 23.1511,38.8503 11.5,50.5C 10.1154,49.4264 8.94873,48.0931 8,46.5C 7.25061,45.365 7.41728,44.365 8.5,43.5C 21.5,31.5 34.5,19.5 47.5,7.5C 54.1985,13.5074 60.8652,19.5074 67.5,25.5 Z"/></g>
<g><path style="opacity:1" fill="#e7e9f5" d="M 83.5,50.5 C 83.5,59.5 83.5,68.5 83.5,77.5C 75.5,77.5 67.5,77.5 59.5,77.5C 59.5,70.1667 59.5,62.8333 59.5,55.5C 51.5,55.5 43.5,55.5 35.5,55.5C 35.5,62.8333 35.5,70.1667 35.5,77.5C 27.5,77.5 19.5,77.5 11.5,77.5C 11.5,68.5 11.5,59.5 11.5,50.5C 23.1511,38.8503 35.1511,27.517 47.5,16.5C 59.8489,27.517 71.8489,38.8503 83.5,50.5 Z"/></g>
<g><path style="opacity:1" fill="#c5c7e6" d="M 77.5,35.5 C 74.4992,32.6684 71.3325,30.0017 68,27.5C 67.5357,26.9056 67.369,26.2389 67.5,25.5C 67.5,22.8333 67.5,20.1667 67.5,17.5C 70.8333,17.5 74.1667,17.5 77.5,17.5C 77.5,23.5 77.5,29.5 77.5,35.5 Z"/></g>
<g><path style="opacity:1" fill="#01569b" d="M 41.5,33.5 C 45.5,33.5 49.5,33.5 53.5,33.5C 53.5,37.5 53.5,41.5 53.5,45.5C 49.5,45.5 45.5,45.5 41.5,45.5C 41.5,41.5 41.5,37.5 41.5,33.5 Z"/></g>
<g><path style="opacity:1" fill="#d84416" d="M 59.5,77.5 C 59.5,80.8333 59.5,84.1667 59.5,87.5C 51.5,87.5 43.5,87.5 35.5,87.5C 35.5,84.1667 35.5,80.8333 35.5,77.5C 35.5,70.1667 35.5,62.8333 35.5,55.5C 43.5,55.5 51.5,55.5 59.5,55.5C 59.5,62.8333 59.5,70.1667 59.5,77.5 Z"/></g>
<g><path style="opacity:1" fill="#c4cae8" d="M 11.5,77.5 C 19.5,77.5 27.5,77.5 35.5,77.5C 35.5,80.8333 35.5,84.1667 35.5,87.5C 27.5,87.5 19.5,87.5 11.5,87.5C 11.5,84.1667 11.5,80.8333 11.5,77.5 Z"/></g>
<g><path style="opacity:1" fill="#c4cae8" d="M 59.5,77.5 C 67.5,77.5 75.5,77.5 83.5,77.5C 83.5,80.8333 83.5,84.1667 83.5,87.5C 75.5,87.5 67.5,87.5 59.5,87.5C 59.5,84.1667 59.5,80.8333 59.5,77.5 Z"/></g>
</svg>
