<?xml version="1.0" encoding="UTF-8"?>
<svg version="1.1" xmlns="http://www.w3.org/2000/svg" width="256" height="198">
<path d="M0 0 C1.3096875 -0.02191406 2.619375 -0.04382812 3.96875 -0.06640625 C7.5 0.5625 7.5 0.5625 9.9453125 2.83984375 C12.24179819 6.86157874 11.94289764 8.98589102 11.5 13.5625 C10.84 14.5525 10.18 15.5425 9.5 16.5625 C9.32679525 19.37193969 9.26598838 22.06860485 9.3125 24.875 C9.31894531 25.67083496 9.32539063 26.46666992 9.33203125 27.28662109 C9.42303773 34.40361191 9.86173174 41.47316329 10.5 48.5625 C11.23605469 48.67207031 11.97210938 48.78164063 12.73046875 48.89453125 C23.06922892 50.57440906 23.06922892 50.57440906 26.5 53.5625 C28.788513 57.48566514 28.75799928 61.0905124 28.5 65.5625 C27.5 66.5625 27.5 66.5625 24.0625 66.8125 C22.886875 66.73 21.71125 66.6475 20.5 66.5625 C19.84 65.5725 19.18 64.5825 18.5 63.5625 C15.94816596 62.35799696 15.94816596 62.35799696 13.5 61.5625 C13.34900176 70.77339251 17.61556157 74.88047202 23.5 81.5625 C25.16541607 83.67589191 26.81160003 85.7945305 28.4375 87.9375 C29.28109925 89.0404799 30.12485014 90.14334383 30.96875 91.24609375 C31.38769531 91.79507324 31.80664062 92.34405273 32.23828125 92.90966797 C34.29978796 95.61020985 36.36771526 98.30579948 38.4375 101 C38.84154053 101.52625977 39.24558105 102.05251953 39.66186523 102.59472656 C43.37561029 107.42164495 47.14004038 112.20826882 50.92163086 116.98217773 C57.10871263 124.81581242 57.10871263 124.81581242 56.96337891 130.34228516 C56.04404893 134.74712542 53.02204484 137.87927133 50.1875 141.25 C49.00183695 142.71056218 47.81818354 144.17275847 46.63671875 145.63671875 C46.0854834 146.3126709 45.53424805 146.98862305 44.96630859 147.68505859 C43.26244025 149.86666824 41.82679964 152.13402557 40.5 154.5625 C41.16 154.8925 41.82 155.2225 42.5 155.5625 C42.52886338 160.04165328 42.54675187 164.52078291 42.5625 169 C42.57087891 170.27939453 42.57925781 171.55878906 42.58789062 172.87695312 C42.59111328 174.09189453 42.59433594 175.30683594 42.59765625 176.55859375 C42.60289307 177.68450928 42.60812988 178.8104248 42.61352539 179.97045898 C42.5 182.5625 42.5 182.5625 41.5 183.5625 C39.77249267 183.5494729 38.04536001 183.47979068 36.3203125 183.38671875 C24.89493091 182.54540469 24.89493091 182.54540469 14.40185547 185.97949219 C11.70385078 188.85174135 9.76682105 192.0963263 7.6953125 195.4296875 C5.5 198.5625 5.5 198.5625 2.9921875 199.9453125 C-0.22935547 200.32953322 -1.62474345 200.11002497 -4.5 198.5625 C-8.5497534 194.80512727 -11.65687357 190.26878163 -14.5 185.5625 C-14.5 184.9025 -14.5 184.2425 -14.5 183.5625 C-15.2520874 183.56773682 -16.0041748 183.57297363 -16.77905273 183.57836914 C-20.16519342 183.59907227 -23.55132084 183.61213877 -26.9375 183.625 C-28.12150391 183.63337891 -29.30550781 183.64175781 -30.52539062 183.65039062 C-31.65009766 183.65361328 -32.77480469 183.65683594 -33.93359375 183.66015625 C-35.49678345 183.66801147 -35.49678345 183.66801147 -37.09155273 183.67602539 C-39.5 183.5625 -39.5 183.5625 -40.5 182.5625 C-40.58758003 180.56285018 -40.60696576 178.5601389 -40.59765625 176.55859375 C-40.59443359 175.34365234 -40.59121094 174.12871094 -40.58789062 172.87695312 C-40.57951172 171.59755859 -40.57113281 170.31816406 -40.5625 169 C-40.55798828 167.71673828 -40.55347656 166.43347656 -40.54882812 165.11132812 C-40.53699545 161.92833978 -40.52051068 158.74544238 -40.5 155.5625 C-39.84 155.5625 -39.18 155.5625 -38.5 155.5625 C-40.94975079 151.20095046 -43.88653644 147.39389408 -47 143.5 C-48.42866073 141.70185805 -49.85643287 139.90366748 -51.26953125 138.09326172 C-52.55308967 136.45233333 -52.55308967 136.45233333 -54.34375 134.62890625 C-56.19020356 131.32899432 -56.23936159 128.17744091 -55.5 124.5625 C-54.12270073 121.92322035 -52.29228601 119.83477349 -50.3125 117.625 C-49.19975637 116.31164393 -48.08915423 114.9964711 -46.98046875 113.6796875 C-46.40345215 113.00389648 -45.82643555 112.32810547 -45.23193359 111.63183594 C-42.41098978 108.26133696 -39.77289388 104.75694498 -37.125 101.25 C-31.82561348 94.2782694 -26.4672425 87.35442403 -21.08056641 80.44995117 C-20.52546387 79.73814697 -19.97036133 79.02634277 -19.3984375 78.29296875 C-18.91036621 77.66801514 -18.42229492 77.04306152 -17.91943359 76.39916992 C-17.45102051 75.79306885 -16.98260742 75.18696777 -16.5 74.5625 C-15.95126221 73.86970947 -15.40252441 73.17691895 -14.8371582 72.46313477 C-13.24591487 70.20134376 -13.17620878 69.03832431 -13.3125 66.3125 C-13.374375 65.075 -13.43625 63.8375 -13.5 62.5625 C-17.10846776 63.80044673 -17.10846776 63.80044673 -20 66.1875 C-21.5 67.5625 -21.5 67.5625 -24.0625 67.9375 C-25.2690625 67.751875 -25.2690625 67.751875 -26.5 67.5625 C-28.77728979 64.14656532 -28.68945272 62.53026057 -28.01171875 58.55859375 C-27.13962075 55.15674583 -26.26131454 53.81008161 -23.5 51.5625 C-20.37712588 50.63237172 -17.28526931 49.93242923 -14.08203125 49.3359375 C-13.22996094 49.08070312 -12.37789062 48.82546875 -11.5 48.5625 C-8.41733344 39.31450033 -8.7175507 26.1640812 -9.5 16.5625 C-10.16 15.5725 -10.82 14.5825 -11.5 13.5625 C-11.8359375 11.44140625 -11.8359375 11.44140625 -11.875 9.125 C-11.90335938 8.36316406 -11.93171875 7.60132813 -11.9609375 6.81640625 C-10.63516397 0.33359837 -5.79484963 -0.00570359 0 0 Z " fill="#AF5A3C" transform="translate(127.5,-0.5625)"/>
<path d="M0 0 C0.804375 -0.00128906 1.60875 -0.00257812 2.4375 -0.00390625 C3.283125 -0.00003906 4.12875 0.00382812 5 0.0078125 C6.2684375 0.00201172 6.2684375 0.00201172 7.5625 -0.00390625 C8.366875 -0.00261719 9.17125 -0.00132813 10 0 C10.7425 0.00112793 11.485 0.00225586 12.25 0.00341797 C14 0.1328125 14 0.1328125 15 1.1328125 C15.09519368 3.9327097 15.12553944 6.70787424 15.11352539 9.50805664 C15.11367142 10.38602402 15.11381744 11.26399139 15.1139679 12.16856384 C15.11326844 15.08505685 15.10547455 18.00148683 15.09765625 20.91796875 C15.09579218 22.93436142 15.09436823 24.95075454 15.09336853 26.96714783 C15.08954244 32.28546388 15.07971139 37.6037528 15.06866455 42.92205811 C15.05845238 48.34451938 15.05387133 53.76698502 15.04882812 59.18945312 C15.0380892 69.83725153 15.02101169 80.48502976 15 91.1328125 C16.59299357 89.07823215 18.18380561 87.02202261 19.7734375 84.96484375 C20.22001709 84.38931763 20.66659668 83.8137915 21.12670898 83.2208252 C24.6418682 78.66658363 27.9129536 73.98926354 31 69.1328125 C29.25027888 66.90342645 27.50023195 64.67429746 25.75 62.4453125 C25.01330078 61.50655273 25.01330078 61.50655273 24.26171875 60.54882812 C23.77832031 59.93330078 23.29492188 59.31777344 22.796875 58.68359375 C22.32282227 58.07298096 21.84876953 57.46236816 21.36035156 56.83325195 C20.18438591 55.36329488 18.92674203 53.95938378 17.65625 52.5703125 C15.5418234 49.45851486 15.58642909 47.54155067 15.75 43.8203125 C15.78609375 42.75167969 15.8221875 41.68304688 15.859375 40.58203125 C15.90578125 39.77378906 15.9521875 38.96554688 16 38.1328125 C20.11974276 42.09916059 23.58383496 46.32031084 27.03027344 50.89453125 C27.4637207 51.46945313 27.89716797 52.044375 28.34375 52.63671875 C28.77945313 53.21566895 29.21515625 53.79461914 29.6640625 54.39111328 C30.98450399 56.11260991 32.34346082 57.79478357 33.71875 59.47265625 C34.14446289 60.00431396 34.57017578 60.53597168 35.00878906 61.08374023 C36.1885386 62.55610665 37.38295265 64.01668755 38.578125 65.4765625 C40 68.1328125 40 68.1328125 39.62109375 70.49609375 C37.33284722 74.21794051 34.62731032 77.48622704 31.8125 80.8203125 C26.89507731 86.74593244 22.24975385 92.70409394 18 99.1328125 C23.42786878 99.73897044 28.81476404 100.12778349 34 98.1328125 C38.60784395 94.42592958 41.55957865 89.14906942 44.64941406 84.18603516 C47.21775933 80.28151893 50.42489106 76.9289629 53.55078125 73.46484375 C55.1831783 71.26053701 55.1831783 71.26053701 55.109375 68.80859375 C53.43922268 64.7802334 50.75530994 61.80092983 47.9375 58.5078125 C46.7426146 57.07733654 45.54990493 55.64504038 44.359375 54.2109375 C43.49022461 53.16583008 43.49022461 53.16583008 42.60351562 52.09960938 C39.85145215 48.72405771 37.34600865 45.18220434 34.8203125 41.63671875 C32.97084405 39.09270743 31.0394436 36.64129567 29.0625 34.1953125 C25.99463477 30.38187047 22.93508662 26.56424291 19.9375 22.6953125 C19.16277344 21.70660156 18.38804687 20.71789062 17.58984375 19.69921875 C17.06519531 18.85230469 16.54054688 18.00539063 16 17.1328125 C16.495 15.6478125 16.495 15.6478125 17 14.1328125 C23.76732196 22.3749295 30.47113749 30.62899533 36.8203125 39.19921875 C39.20497 42.40867714 41.62556195 45.58798858 44.0625 48.7578125 C44.47846436 49.30010498 44.89442871 49.84239746 45.32299805 50.40112305 C48.5936567 54.64790602 51.96934762 58.80104818 55.40625 62.9140625 C58.57331148 67.32310888 58.57331148 67.32310888 59 70.1328125 C57.43592645 73.15191389 55.29604725 75.65527431 53.125 78.2578125 C51.91435214 79.76872057 50.70471706 81.2804407 49.49609375 82.79296875 C48.89909668 83.52918457 48.30209961 84.26540039 47.68701172 85.02392578 C45.42502096 87.8515779 43.30158994 90.7554659 41.1875 93.6953125 C40.56230469 94.56285156 39.93710938 95.43039063 39.29296875 96.32421875 C38.86628906 96.92105469 38.43960938 97.51789063 38 98.1328125 C39.98 98.1328125 41.96 98.1328125 44 98.1328125 C44 105.7228125 44 113.3128125 44 121.1328125 C42.24171875 121.15859375 40.4834375 121.184375 38.671875 121.2109375 C36.36455834 121.26721352 34.05726763 121.32456096 31.75 121.3828125 C30.59113281 121.39699219 29.43226563 121.41117187 28.23828125 121.42578125 C27.12324219 121.45800781 26.00820312 121.49023438 24.859375 121.5234375 C23.83295898 121.54438477 22.80654297 121.56533203 21.74902344 121.58691406 C18.37645667 122.25663514 17.1661008 123.5316789 15 126.1328125 C15 124.8128125 15 123.4928125 15 122.1328125 C14.01 121.6378125 14.01 121.6378125 13 121.1328125 C13.10441406 121.98552734 13.10441406 121.98552734 13.2109375 122.85546875 C13.46604873 126.49384079 13.62913179 129.11737171 11.6640625 132.2890625 C10.17536024 133.99443034 8.66082274 135.59556288 7 137.1328125 C4.08072869 137.1328125 2.44134417 136.55658559 0.33203125 134.53125 C-2.38536365 131.18775699 -4.38401877 128.5520093 -4.375 124.1328125 C-4.25125 123.1428125 -4.1275 122.1528125 -4 121.1328125 C-4.66 122.4528125 -5.32 123.7728125 -6 125.1328125 C-6.66 123.8128125 -7.32 122.4928125 -8 121.1328125 C-16.25 121.1328125 -24.5 121.1328125 -33 121.1328125 C-33 113.8728125 -33 106.6128125 -33 99.1328125 C-31.02 99.1328125 -29.04 99.1328125 -27 99.1328125 C-29.90656132 94.64333515 -33.04295287 90.43839337 -36.375 86.2578125 C-37.34646994 85.02092425 -38.31782487 83.78394567 -39.2890625 82.546875 C-40.86037498 80.55465578 -42.45083761 78.59754837 -44.0859375 76.65625 C-46.52159541 73.69458146 -47.90982035 71.99853714 -48.3125 68.1328125 C-47.04742251 65.24120682 -45.90566447 63.75431429 -43.8125 61.45703125 C-40.22466749 57.43237519 -36.93131678 53.24922301 -33.6875 48.9453125 C-32.55097211 47.4477718 -31.41425145 45.95037738 -30.27734375 44.453125 C-29.72288574 43.72125977 -29.16842773 42.98939453 -28.59716797 42.23535156 C-26.33051142 39.25148635 -24.04128034 36.28528476 -21.75 33.3203125 C-19.28195814 30.12637598 -16.83511751 26.92248279 -14.453125 23.6640625 C-14.04094727 23.10307861 -13.62876953 22.54209473 -13.20410156 21.96411133 C-12.06828067 20.41352697 -10.94013905 18.85732586 -9.8125 17.30078125 C-9.214375 16.58535156 -8.61625 15.86992188 -8 15.1328125 C-7.34 15.1328125 -6.68 15.1328125 -6 15.1328125 C-6.88648461 19.62660291 -9.44070302 22.44228973 -12.3125 25.8828125 C-16.68912518 31.23275177 -20.94383699 36.64418878 -25.0625 42.1953125 C-29.84535216 48.62905052 -34.74534769 54.95799314 -39.72265625 61.2421875 C-40.47417969 62.19609375 -41.22570312 63.15 -42 64.1328125 C-42.63808594 64.81859375 -43.27617188 65.504375 -43.93359375 66.2109375 C-45.25043879 68.10519935 -45.25043879 68.10519935 -44.58984375 70.37890625 C-42.31094495 74.32638451 -39.48621423 77.70922263 -36.5625 81.1953125 C-35.39656247 82.60239002 -34.23118007 84.00992776 -33.06640625 85.41796875 C-32.55021729 86.03551025 -32.03402832 86.65305176 -31.50219727 87.28930664 C-29.94615032 89.19889716 -28.46525627 91.15298032 -27 93.1328125 C-25.02 92.6378125 -25.02 92.6378125 -23 92.1328125 C-24.65 91.8028125 -26.3 91.4728125 -28 91.1328125 C-27.7525 90.235625 -27.7525 90.235625 -27.5 89.3203125 C-26.8885876 87.01936914 -26.8885876 87.01936914 -27 84.1328125 C-24.525 83.6378125 -24.525 83.6378125 -22 83.1328125 C-22 84.4528125 -22 85.7728125 -22 87.1328125 C-20.68 87.1328125 -19.36 87.1328125 -18 87.1328125 C-19.625 92.8828125 -19.625 92.8828125 -23 95.1328125 C-23.33 96.1228125 -23.66 97.1128125 -24 98.1328125 C-19.05 97.8028125 -14.1 97.4728125 -9 97.1328125 C-10.11375 95.7509375 -11.2275 94.3690625 -12.375 92.9453125 C-17.33902833 86.74248922 -22.18156833 80.44898048 -27 74.1328125 C-27.63292969 73.44960937 -28.26585938 72.76640625 -28.91796875 72.0625 C-30 70.1328125 -30 70.1328125 -29.46875 67.7265625 C-27.75572391 64.70143132 -25.78008871 62.2592438 -23.5 59.6328125 C-19.21243866 54.6383102 -15.15859637 49.51182157 -11.22460938 44.234375 C-8.20986899 40.237747 -8.20986899 40.237747 -6 39.1328125 C-5.08631658 44.76719361 -4.80398161 49.74792559 -8.0859375 54.61328125 C-9.77886497 56.86105246 -11.57877932 58.99952177 -13.421875 61.125 C-15.9139693 64.03244335 -17.94445655 66.91502252 -20 70.1328125 C-18.86111328 71.57914063 -18.86111328 71.57914063 -17.69921875 73.0546875 C-16.69528885 74.33071056 -15.69138391 75.60675326 -14.6875 76.8828125 C-13.93823242 77.83414063 -13.93823242 77.83414063 -13.17382812 78.8046875 C-12.20436186 80.03738633 -11.2389795 81.27330996 -10.27807617 82.51269531 C-9.27644031 83.78239075 -8.22503903 85.01285293 -7.15625 86.2265625 C-5.56046277 88.85745497 -5.70372279 90.8370506 -5.8125 93.8828125 C-5.85310547 95.36007813 -5.85310547 95.36007813 -5.89453125 96.8671875 C-5.92933594 97.61484375 -5.96414062 98.3625 -6 99.1328125 C-5.34 99.1328125 -4.68 99.1328125 -4 99.1328125 C-4.01252808 98.53925461 -4.02505615 97.94569672 -4.03796387 97.33415222 C-4.58354501 71.31033358 -5.1001136 45.28813625 -5.125 19.2578125 C-5.12749756 18.33108734 -5.12999512 17.40436218 -5.13256836 16.44955444 C-5.13834952 13.86737112 -5.13704652 11.28530898 -5.1328125 8.703125 C-5.13479645 7.94225082 -5.1367804 7.18137665 -5.13882446 6.39744568 C-5.10980926 0.0077623 -5.10980926 0.0077623 0 0 Z " fill="#0C0605" transform="translate(123,58.8671875)"/>
<path d="M0 0 C1.32 0.33 2.64 0.66 4 1 C3.77376953 1.91265625 3.77376953 1.91265625 3.54296875 2.84375 C2.85594661 7.97754178 3.40865665 11.54935233 6.47265625 15.73046875 C9.27254407 19.21866778 12.24100877 22.56095951 15.20410156 25.91064453 C18.01998824 29.18665843 20.56957525 32.6445174 23.125 36.125 C26.95161211 41.28597841 30.83419778 46.3924173 34.8125 51.4375 C35.26488037 52.0145166 35.71726074 52.5915332 36.18334961 53.18603516 C38.16811384 55.71116746 40.17183109 58.20386232 42.2421875 60.66015625 C42.88414062 61.43230469 43.52609375 62.20445313 44.1875 63 C45.01314453 63.9590625 45.01314453 63.9590625 45.85546875 64.9375 C47.5057718 67.91142495 47.51785246 69.63603045 47 73 C45.41028114 75.46640205 43.88586809 77.53949253 42 79.75 C41.50395264 80.35473145 41.00790527 80.95946289 40.49682617 81.58251953 C39.48970672 82.8093535 38.47695073 84.03158296 37.45849609 85.24902344 C35.36807646 87.75864674 33.34262759 90.31638318 31.3125 92.875 C30.20898532 94.25052331 29.10509978 95.62574984 28 97 C29.65 97.33 31.3 97.66 33 98 C33.02886751 102.14581887 33.04675327 106.29161216 33.0625 110.4375 C33.07087891 111.62150391 33.07925781 112.80550781 33.08789062 114.02539062 C33.09111328 115.15009766 33.09433594 116.27480469 33.09765625 117.43359375 C33.10289307 118.47572021 33.10812988 119.51784668 33.11352539 120.59155273 C33 123 33 123 32 124 C30.07332493 124.08748207 28.14348139 124.10697334 26.21484375 124.09765625 C24.46010742 124.09282227 24.46010742 124.09282227 22.66992188 124.08789062 C21.43822266 124.07951172 20.20652344 124.07113281 18.9375 124.0625 C17.08415039 124.05573242 17.08415039 124.05573242 15.19335938 124.04882812 C12.12885883 124.03699608 9.06445279 124.02051173 6 124 C5.7102832 124.59780273 5.42056641 125.19560547 5.12207031 125.81152344 C3.57973391 128.81968348 1.70679489 131.49451332 -0.25 134.25 C-0.99765625 135.32765625 -1.7453125 136.4053125 -2.515625 137.515625 C-5 140 -5 140 -8.02734375 140.82421875 C-11 140 -11 140 -13.11328125 136.75390625 C-13.63656006 135.74481201 -13.63656006 135.74481201 -14.17041016 134.71533203 C-16.24247634 130.80950057 -18.33814931 127.56552781 -22 125 C-29.38016119 123.00532862 -37.19757108 123.50938396 -44.76611328 123.96728516 C-45.5032959 123.97808105 -46.24047852 123.98887695 -47 124 C-48 123 -48 123 -48.11352539 120.59155273 C-48.10828857 119.54942627 -48.10305176 118.5072998 -48.09765625 117.43359375 C-48.09443359 116.30888672 -48.09121094 115.18417969 -48.08789062 114.02539062 C-48.07951172 112.84138672 -48.07113281 111.65738281 -48.0625 110.4375 C-48.05573242 108.65569336 -48.05573242 108.65569336 -48.04882812 106.83789062 C-48.03699675 103.89187774 -48.02051287 100.94596319 -48 98 C-46.02 97.505 -46.02 97.505 -44 97 C-45.16841409 95.5094129 -46.33703551 94.01898794 -47.5065918 92.52929688 C-48.5072315 91.25334629 -49.50607628 89.97598615 -50.50317383 88.69726562 C-52.79240911 85.76928541 -55.09941594 82.88342205 -57.51171875 80.0546875 C-58.22972656 79.21164063 -58.94773437 78.36859375 -59.6875 77.5 C-60.33074219 76.7678125 -60.97398438 76.035625 -61.63671875 75.28125 C-63.46839107 72.21621667 -63.5585532 70.52111935 -63 67 C-61.09375 64.140625 -61.09375 64.140625 -58.5 61.25 C-57.58495015 60.20920056 -56.67090359 59.16751828 -55.7578125 58.125 C-55.29665039 57.60679688 -54.83548828 57.08859375 -54.36035156 56.5546875 C-52.28524591 54.18313818 -50.33209854 51.71917092 -48.375 49.25 C-47.72273438 48.43015625 -47.07046875 47.6103125 -46.3984375 46.765625 C-45.93695313 46.18296875 -45.47546875 45.6003125 -45 45 C-44.34 45.33 -43.68 45.66 -43 46 C-43.40839111 46.52432617 -43.81678223 47.04865234 -44.23754883 47.58886719 C-46.0962331 49.97562575 -47.95437171 52.36280858 -49.8125 54.75 C-50.45509766 55.575 -51.09769531 56.4 -51.75976562 57.25 C-52.38173828 58.04921875 -53.00371094 58.8484375 -53.64453125 59.671875 C-54.21534424 60.4050293 -54.78615723 61.13818359 -55.37426758 61.89355469 C-55.91075928 62.58868164 -56.44725098 63.28380859 -57 64 C-57.56340088 64.70253906 -58.12680176 65.40507813 -58.70727539 66.12890625 C-60.20813647 67.93173274 -60.20813647 67.93173274 -60.0390625 70.265625 C-58.50793725 74.29490197 -56.01580017 77.37317405 -53.375 80.75 C-52.83391602 81.45721191 -52.29283203 82.16442383 -51.73535156 82.89306641 C-48.2495145 87.43840624 -44.71698909 91.94904678 -41.109375 96.3984375 C-40 98 -40 98 -40 100 C-41.98 100 -43.96 100 -46 100 C-46 107.26 -46 114.52 -46 122 C-44.21851562 121.96519531 -42.43703125 121.93039063 -40.6015625 121.89453125 C-38.27605106 121.86640006 -35.95052947 121.83909919 -33.625 121.8125 C-32.449375 121.78736328 -31.27375 121.76222656 -30.0625 121.73632812 C-28.94101563 121.72666016 -27.81953125 121.71699219 -26.6640625 121.70703125 C-25.10872803 121.68346558 -25.10872803 121.68346558 -23.52197266 121.65942383 C-22.68972168 121.77181396 -21.8574707 121.8842041 -21 122 C-20.01 123.485 -20.01 123.485 -19 125 C-19 124.01 -19 123.02 -19 122 C-18.34 122 -17.68 122 -17 122 C-16.95875 122.99 -16.9175 123.98 -16.875 125 C-16.20231668 129.91962431 -13.29083297 133.42111003 -10 137 C-9.34 137.33 -8.68 137.66 -8 138 C-8 132.72 -8 127.44 -8 122 C-7.67 122 -7.34 122 -7 122 C-6.505 129.425 -6.505 129.425 -6 137 C-1.21055351 132.21055351 -0.16439013 128.72505081 0 122 C3 123 3 123 4 124 C4.66 123.34 5.32 122.68 6 122 C8.52197266 121.77294922 8.52197266 121.77294922 11.6640625 121.8046875 C12.78554687 121.81113281 13.90703125 121.81757813 15.0625 121.82421875 C16.8259375 121.84935547 16.8259375 121.84935547 18.625 121.875 C19.80835938 121.88402344 20.99171875 121.89304687 22.2109375 121.90234375 C25.14071057 121.92597095 28.07038014 121.96184287 31 122 C31 114.41 31 106.82 31 99 C29.02 99 27.04 99 25 99 C26.43975782 94.64908351 28.6290913 91.81612114 31.625 88.375 C32.52041553 87.32086368 33.41360322 86.2648314 34.3046875 85.20703125 C34.75295898 84.6754541 35.20123047 84.14387695 35.66308594 83.59619141 C37.73846248 81.11832218 39.76722484 78.61523666 41.75 76.0625 C42.42546875 75.20785156 43.1009375 74.35320312 43.796875 73.47265625 C45.27687047 71.07091528 45.27687047 71.07091528 44.48828125 68.53125 C42.7285144 65.53826072 40.71649791 63.05888257 38.4375 60.4375 C34.17368225 55.45609408 30.1822496 50.33309349 26.27734375 45.0625 C23.90381538 41.87065395 21.49185756 38.71187719 19.0625 35.5625 C18.44882568 34.76658447 18.44882568 34.76658447 17.82275391 33.95458984 C16.98538448 32.86898966 16.14781702 31.78354221 15.31005859 30.69824219 C12.99502343 27.69723872 10.68536939 24.69209592 8.375 21.6875 C7.52866839 20.58722223 6.6823164 19.48696014 5.8359375 18.38671875 C5.23007813 17.59910156 4.62421875 16.81148437 4 16 C5.34358692 19.83397279 7.03629461 22.5676459 9.625 25.6875 C10.34042969 26.56019531 11.05585938 27.43289062 11.79296875 28.33203125 C12.88544922 29.65267578 12.88544922 29.65267578 14 31 C18.99586169 37.15403787 23.83042607 43.40158264 28.55078125 49.76953125 C30.31224514 52.1208264 32.12984612 54.41747507 33.98046875 56.69921875 C34.48215576 57.32151367 34.98384277 57.94380859 35.50073242 58.58496094 C36.47893457 59.79365625 37.46447683 60.99645856 38.45825195 62.19238281 C43.26952212 68.15638023 43.26952212 68.15638023 43 72 C41.34060605 74.78048692 39.26178434 77.13901376 37.125 79.5625 C32.03461801 85.36107008 32.03461801 85.36107008 27.69140625 91.71484375 C22.9417167 99.50137184 22.9417167 99.50137184 19.06054688 100.49804688 C14.31045723 101.01538337 9.72135206 100.62565156 5 100 C6.64793447 96.25387575 9.0500941 93.19344531 11.5625 90 C12.21653809 89.15211914 12.21653809 89.15211914 12.88378906 88.28710938 C15.12821718 85.37760559 17.40214338 82.49908054 19.73046875 79.65625 C20.5703926 78.60423061 21.4102396 77.55214987 22.25 76.5 C23.01828125 75.5615625 23.7865625 74.623125 24.578125 73.65625 C26.27686705 71.13718811 26.27686705 71.13718811 25.5859375 68.6015625 C23.45649765 65.10844196 20.98761358 62.01696928 18.375 58.875 C13.35427341 52.72938219 8.58216311 46.48241311 4 40 C3.02352509 43.93928341 3.03286452 47.04755134 4 51 C7.20548221 56.22416829 11.43731321 60.75893202 15.57958984 65.25170898 C17.0596367 67.07340296 18.03080484 68.86911433 19 71 C18.34773438 71.845625 17.69546875 72.69125 17.0234375 73.5625 C15.67785877 75.3069881 14.3344689 77.0530127 12.99633789 78.80322266 C11.03907705 81.36263742 9.07725455 83.90569723 7.03515625 86.3984375 C3.60408408 90.64323583 2.22899567 93.50410385 2 99 C1.67 99 1.34 99 1 99 C1.00222061 97.78921783 1.00444122 96.57843567 1.00672913 95.33096313 C1.02696797 83.94129077 1.04197574 72.55162204 1.05181217 61.16193581 C1.0570391 55.30586627 1.06413333 49.44981121 1.07543945 43.59375 C1.08627504 37.9463016 1.09227827 32.29886714 1.09487724 26.65140915 C1.09673027 24.49275874 1.10034857 22.33410913 1.10573006 20.17546463 C1.11294936 17.16074195 1.11399056 14.14607753 1.11352539 11.13134766 C1.1189183 9.78160103 1.1189183 9.78160103 1.12442017 8.40458679 C1.25185505 4.06609301 1.25185505 4.06609301 0 0 Z " fill="#AD4B28" transform="translate(136,58)"/>
<path d="M0 0 C1.32 0.33 2.64 0.66 4 1 C3.77376953 1.91265625 3.77376953 1.91265625 3.54296875 2.84375 C2.85594661 7.97754178 3.40865665 11.54935233 6.47265625 15.73046875 C9.27254407 19.21866778 12.24100877 22.56095951 15.20410156 25.91064453 C18.01998824 29.18665843 20.56957525 32.6445174 23.125 36.125 C26.95161211 41.28597841 30.83419778 46.3924173 34.8125 51.4375 C35.26488037 52.0145166 35.71726074 52.5915332 36.18334961 53.18603516 C38.16811384 55.71116746 40.17183109 58.20386232 42.2421875 60.66015625 C42.88414062 61.43230469 43.52609375 62.20445313 44.1875 63 C45.01314453 63.9590625 45.01314453 63.9590625 45.85546875 64.9375 C47.5057718 67.91142495 47.51785246 69.63603045 47 73 C45.41028114 75.46640205 43.88586809 77.53949253 42 79.75 C41.50395264 80.35473145 41.00790527 80.95946289 40.49682617 81.58251953 C39.48970672 82.8093535 38.47695073 84.03158296 37.45849609 85.24902344 C35.36807646 87.75864674 33.34262759 90.31638318 31.3125 92.875 C30.20898532 94.25052331 29.10509978 95.62574984 28 97 C29.65 97.33 31.3 97.66 33 98 C33.02886751 102.14581887 33.04675327 106.29161216 33.0625 110.4375 C33.07087891 111.62150391 33.07925781 112.80550781 33.08789062 114.02539062 C33.09111328 115.15009766 33.09433594 116.27480469 33.09765625 117.43359375 C33.10289307 118.47572021 33.10812988 119.51784668 33.11352539 120.59155273 C33 123 33 123 32 124 C30.07332493 124.08748207 28.14348139 124.10697334 26.21484375 124.09765625 C24.46010742 124.09282227 24.46010742 124.09282227 22.66992188 124.08789062 C21.43822266 124.07951172 20.20652344 124.07113281 18.9375 124.0625 C17.08415039 124.05573242 17.08415039 124.05573242 15.19335938 124.04882812 C12.12885883 124.03699608 9.06445279 124.02051173 6 124 C5.7102832 124.59780273 5.42056641 125.19560547 5.12207031 125.81152344 C3.57973391 128.81968348 1.70679489 131.49451332 -0.25 134.25 C-0.99765625 135.32765625 -1.7453125 136.4053125 -2.515625 137.515625 C-5 140 -5 140 -8.02734375 140.82421875 C-11 140 -11 140 -13.11328125 136.75390625 C-13.63656006 135.74481201 -13.63656006 135.74481201 -14.17041016 134.71533203 C-16.24247634 130.80950057 -18.33814931 127.56552781 -22 125 C-29.38016119 123.00532862 -37.19757108 123.50938396 -44.76611328 123.96728516 C-45.5032959 123.97808105 -46.24047852 123.98887695 -47 124 C-48 123 -48 123 -48.11352539 120.59155273 C-48.10828857 119.54942627 -48.10305176 118.5072998 -48.09765625 117.43359375 C-48.09443359 116.30888672 -48.09121094 115.18417969 -48.08789062 114.02539062 C-48.07951172 112.84138672 -48.07113281 111.65738281 -48.0625 110.4375 C-48.05573242 108.65569336 -48.05573242 108.65569336 -48.04882812 106.83789062 C-48.03699675 103.89187774 -48.02051287 100.94596319 -48 98 C-46.02 97.505 -46.02 97.505 -44 97 C-45.16841409 95.5094129 -46.33703551 94.01898794 -47.5065918 92.52929688 C-48.5072315 91.25334629 -49.50607628 89.97598615 -50.50317383 88.69726562 C-52.79240911 85.76928541 -55.09941594 82.88342205 -57.51171875 80.0546875 C-58.22972656 79.21164063 -58.94773437 78.36859375 -59.6875 77.5 C-60.33074219 76.7678125 -60.97398438 76.035625 -61.63671875 75.28125 C-63.46839107 72.21621667 -63.5585532 70.52111935 -63 67 C-61.09375 64.140625 -61.09375 64.140625 -58.5 61.25 C-57.58495015 60.20920056 -56.67090359 59.16751828 -55.7578125 58.125 C-55.29665039 57.60679688 -54.83548828 57.08859375 -54.36035156 56.5546875 C-52.28524591 54.18313818 -50.33209854 51.71917092 -48.375 49.25 C-47.72273438 48.43015625 -47.07046875 47.6103125 -46.3984375 46.765625 C-45.93695313 46.18296875 -45.47546875 45.6003125 -45 45 C-44.34 45.33 -43.68 45.66 -43 46 C-43.40839111 46.52432617 -43.81678223 47.04865234 -44.23754883 47.58886719 C-46.0962331 49.97562575 -47.95437171 52.36280858 -49.8125 54.75 C-50.45509766 55.575 -51.09769531 56.4 -51.75976562 57.25 C-52.38173828 58.04921875 -53.00371094 58.8484375 -53.64453125 59.671875 C-54.21534424 60.4050293 -54.78615723 61.13818359 -55.37426758 61.89355469 C-55.91075928 62.58868164 -56.44725098 63.28380859 -57 64 C-57.56340088 64.70253906 -58.12680176 65.40507813 -58.70727539 66.12890625 C-60.20813647 67.93173274 -60.20813647 67.93173274 -60.0390625 70.265625 C-58.50793725 74.29490197 -56.01580017 77.37317405 -53.375 80.75 C-52.83391602 81.45721191 -52.29283203 82.16442383 -51.73535156 82.89306641 C-48.2495145 87.43840624 -44.71698909 91.94904678 -41.109375 96.3984375 C-40 98 -40 98 -40 100 C-41.98 100 -43.96 100 -46 100 C-46 107.26 -46 114.52 -46 122 C-44.21851562 121.96519531 -42.43703125 121.93039063 -40.6015625 121.89453125 C-38.27605106 121.86640006 -35.95052947 121.83909919 -33.625 121.8125 C-32.449375 121.78736328 -31.27375 121.76222656 -30.0625 121.73632812 C-28.94101563 121.72666016 -27.81953125 121.71699219 -26.6640625 121.70703125 C-25.10872803 121.68346558 -25.10872803 121.68346558 -23.52197266 121.65942383 C-22.68972168 121.77181396 -21.8574707 121.8842041 -21 122 C-20.01 123.485 -20.01 123.485 -19 125 C-19 124.01 -19 123.02 -19 122 C-18.34 122 -17.68 122 -17 122 C-16.95875 122.99 -16.9175 123.98 -16.875 125 C-16.20231668 129.91962431 -13.29083297 133.42111003 -10 137 C-9.34 137.33 -8.68 137.66 -8 138 C-8 132.72 -8 127.44 -8 122 C-7.67 122 -7.34 122 -7 122 C-6.505 129.425 -6.505 129.425 -6 137 C-1.21055351 132.21055351 -0.16439013 128.72505081 0 122 C3 123 3 123 4 124 C4.66 123.34 5.32 122.68 6 122 C8.52197266 121.77294922 8.52197266 121.77294922 11.6640625 121.8046875 C12.78554687 121.81113281 13.90703125 121.81757813 15.0625 121.82421875 C16.8259375 121.84935547 16.8259375 121.84935547 18.625 121.875 C19.80835938 121.88402344 20.99171875 121.89304687 22.2109375 121.90234375 C25.14071057 121.92597095 28.07038014 121.96184287 31 122 C31 114.41 31 106.82 31 99 C29.02 99 27.04 99 25 99 C26.43975782 94.64908351 28.6290913 91.81612114 31.625 88.375 C32.52041553 87.32086368 33.41360322 86.2648314 34.3046875 85.20703125 C34.75295898 84.6754541 35.20123047 84.14387695 35.66308594 83.59619141 C37.73846248 81.11832218 39.76722484 78.61523666 41.75 76.0625 C42.42546875 75.20785156 43.1009375 74.35320312 43.796875 73.47265625 C45.27687047 71.07091528 45.27687047 71.07091528 44.48828125 68.53125 C42.7285144 65.53826072 40.71649791 63.05888257 38.4375 60.4375 C34.17368225 55.45609408 30.1822496 50.33309349 26.27734375 45.0625 C22.78240369 40.36261491 19.19666121 35.73420227 15.61767578 31.09814453 C11.74029964 26.06914203 7.87116492 21.03378424 4 16 C1.37994514 38.57171096 1.37994514 38.57171096 8.55200195 58.98828125 C10.77416326 61.36430052 13.0361036 63.60123206 15.57958984 65.63256836 C17.25835475 67.24871863 18.06419401 68.88160374 19 71 C18.34773438 71.845625 17.69546875 72.69125 17.0234375 73.5625 C15.67785877 75.3069881 14.3344689 77.0530127 12.99633789 78.80322266 C11.03907705 81.36263742 9.07725455 83.90569723 7.03515625 86.3984375 C3.60408408 90.64323583 2.22899567 93.50410385 2 99 C1.67 99 1.34 99 1 99 C1.00222061 97.78921783 1.00444122 96.57843567 1.00672913 95.33096313 C1.02696797 83.94129077 1.04197574 72.55162204 1.05181217 61.16193581 C1.0570391 55.30586627 1.06413333 49.44981121 1.07543945 43.59375 C1.08627504 37.9463016 1.09227827 32.29886714 1.09487724 26.65140915 C1.09673027 24.49275874 1.10034857 22.33410913 1.10573006 20.17546463 C1.11294936 17.16074195 1.11399056 14.14607753 1.11352539 11.13134766 C1.1189183 9.78160103 1.1189183 9.78160103 1.12442017 8.40458679 C1.25185505 4.06609301 1.25185505 4.06609301 0 0 Z " fill="#A24E31" transform="translate(136,58)"/>
<path d="M0 0 C0.33 0 0.66 0 1 0 C2.73336257 18.9763201 2.73336257 18.9763201 -0.875 24.609375 C-2.99992381 27.06631816 -5.18634676 29.34466787 -7.55810547 31.5625 C-10.14303251 34.13954883 -12.25879869 37.07983875 -14.4375 40 C-15.24804939 41.06299482 -16.05921067 42.12552346 -16.87109375 43.1875 C-17.92490234 44.5796875 -17.92490234 44.5796875 -19 46 C-19.94552734 47.0209375 -19.94552734 47.0209375 -20.91015625 48.0625 C-22.28771306 50.00237375 -22.28771306 50.00237375 -21.4375 52.4375 C-19.85874828 55.25179654 -18.09565173 57.54509368 -16 60 C-12.38835186 64.31048738 -8.86990842 68.67027713 -5.4375 73.125 C-4.99599609 73.69347656 -4.55449219 74.26195312 -4.09960938 74.84765625 C-1 78.87862679 -1 78.87862679 -1 80 C-6.28 80 -11.56 80 -17 80 C-16.67 78.68 -16.34 77.36 -16 76 C-15.01 75.505 -15.01 75.505 -14 75 C-12.95191959 73.02477154 -11.9479589 71.02518491 -11 69 C-12.32 69 -13.64 69 -15 69 C-15.33 68.01 -15.66 67.02 -16 66 C-17.98 66.99 -17.98 66.99 -20 68 C-20 68.99 -20 69.98 -20 71 C-20.33 71.66 -20.66 72.32 -21 73 C-19.02 72.505 -19.02 72.505 -17 72 C-16.34 72.99 -15.68 73.98 -15 75 C-16.32 75 -17.64 75 -19 75 C-19.33 75.66 -19.66 76.32 -20 77 C-21.17755859 75.42412109 -21.17755859 75.42412109 -22.37890625 73.81640625 C-22.88534668 73.14005127 -23.39178711 72.46369629 -23.91357422 71.7668457 C-25.01504517 70.2943581 -26.11432276 68.8202273 -27.21142578 67.34448242 C-30.67033101 62.70778246 -34.23276227 58.21395827 -38.0859375 53.89453125 C-39 52 -39 52 -38.44921875 49.609375 C-36.74269719 46.53671623 -34.74433692 44.09090397 -32.4375 41.4375 C-28.17675913 36.4596888 -24.18821708 31.3402532 -20.28515625 26.07421875 C-6.44283822 7.45216013 -6.44283822 7.45216013 0 0 Z " fill="#AD4B29" transform="translate(116,77)"/>
<path d="M0 0 C1.765625 1.359375 1.765625 1.359375 3 3 C3.1875 5.6875 3.1875 5.6875 3 8 C2.01 8 1.02 8 0 8 C-0.66 6.68 -1.32 5.36 -2 4 C-3.65 4 -5.3 4 -7 4 C-7.38218767 5.65614657 -7.71395102 7.32457024 -8 9 C-6.03177114 10.96822886 -2.65191291 10.66248381 0 11 C0.33968421 14.81196152 0.67057595 18.6246392 1 22.4375 C1.09539062 23.50677734 1.19078125 24.57605469 1.2890625 25.67773438 C1.81473917 31.81688689 2.04927615 37.84048134 2 44 C2.42450628 46.89086974 2.42450628 46.89086974 3 49 C4.7325 49.1546875 4.7325 49.1546875 6.5 49.3125 C11.48040307 49.95055876 17.28034731 50.77878195 20.5 54.9375 C21 57 21 57 21 61 C19.0625 60.625 19.0625 60.625 17 60 C16.67 59.34 16.34 58.68 16 58 C10.56266451 55.9267121 4.05246624 56.81406378 -1.69897461 56.81469727 C-3.92646392 56.81251083 -6.15345758 56.79433572 -8.38085938 56.77539062 C-9.80468582 56.77245622 -11.2285146 56.77047174 -12.65234375 56.76953125 C-13.94132568 56.76542236 -15.23030762 56.76131348 -16.55834961 56.75708008 C-21.72396037 57.12168125 -25.02791701 58.76348794 -29 62 C-29.75 60.375 -29.75 60.375 -30 58 C-28.82693573 55.12599255 -28.29195881 53.94353752 -26 52 C-21.45910417 50.17413905 -16.90254511 49 -12 49 C-10.50278857 42.77145109 -10.8139981 36.42533198 -10.81469727 30.06079102 C-10.81249679 27.80921916 -10.79427358 25.55812684 -10.77539062 23.30664062 C-10.77245893 21.87760584 -10.77047264 20.44856873 -10.76953125 19.01953125 C-10.76542236 17.72120361 -10.76131348 16.42287598 -10.75708008 15.08520508 C-10.67228225 11.89477018 -10.67228225 11.89477018 -13 10 C-13.45409879 6.51857596 -13.39476404 4.65221885 -11.5625 1.625 C-7.89506113 -0.70069294 -4.23991022 -0.86672198 0 0 Z " fill="#0B0201" transform="translate(132,2)"/>
<path d="M0 0 C0.66 0.33 1.32 0.66 2 1 C2 30.7 2 60.4 2 91 C10.35253994 80.21190594 10.35253994 80.21190594 18 69 C16.25027888 66.77061395 14.50023195 64.54148496 12.75 62.3125 C12.01330078 61.37374023 12.01330078 61.37374023 11.26171875 60.41601562 C10.77832031 59.80048828 10.29492188 59.18496094 9.796875 58.55078125 C9.0857959 57.63486206 9.0857959 57.63486206 8.36035156 56.70043945 C7.18438591 55.23048238 5.92674203 53.82657128 4.65625 52.4375 C2.5418234 49.32570236 2.58642909 47.40873817 2.75 43.6875 C2.78609375 42.61886719 2.8221875 41.55023438 2.859375 40.44921875 C2.90578125 39.64097656 2.9521875 38.83273438 3 38 C7.11974276 41.96634809 10.58383496 46.18749834 14.03027344 50.76171875 C14.68044434 51.62410156 14.68044434 51.62410156 15.34375 52.50390625 C15.99730469 53.37233154 15.99730469 53.37233154 16.6640625 54.25830078 C17.98450399 55.97979741 19.34346082 57.66197107 20.71875 59.33984375 C21.14446289 59.87150146 21.57017578 60.40315918 22.00878906 60.95092773 C23.1885386 62.42329415 24.38295265 63.88387505 25.578125 65.34375 C27 68 27 68 26.62109375 70.36328125 C24.33300826 74.08486608 21.62856264 77.35473223 18.8125 80.6875 C14.33969557 86.03745711 10.21598448 91.35287309 6.66015625 97.375 C5 99 5 99 1.89624023 99.1015625 C0.94048096 99.06804687 -0.01527832 99.03453125 -1 99 C-1.12398531 65.98335734 -0.95686079 33.00406262 0 0 Z " fill="#160401" transform="translate(136,59)"/>
<path d="M0 0 C0.33 0 0.66 0 1 0 C1.91368342 5.63438111 2.19601839 10.61511309 -1.0859375 15.48046875 C-2.77886497 17.72823996 -4.57877932 19.86670927 -6.421875 21.9921875 C-8.9139693 24.89963085 -10.94445655 27.78221002 -13 31 C-11.86111328 32.44632813 -11.86111328 32.44632813 -10.69921875 33.921875 C-9.69528885 35.19789806 -8.69138391 36.47394076 -7.6875 37.75 C-7.18798828 38.38421875 -6.68847656 39.0184375 -6.17382812 39.671875 C-5.20544066 40.90320211 -4.24000834 42.1368602 -3.27783203 43.37304688 C-2.26102214 44.66766306 -1.2153414 45.93959118 -0.16015625 47.203125 C1.20756981 49.32148859 1.3475736 50.50211586 1.25 53 C1.23453125 53.66 1.2190625 54.32 1.203125 55 C1 57 1 57 0 61 C-5.94 61 -11.88 61 -18 61 C-18 60.67 -18 60.34 -18 60 C-12.39 60 -6.78 60 -1 60 C-6.34829859 52.53256423 -11.87873439 45.26374242 -17.58203125 38.06640625 C-18.37996094 37.05449219 -19.17789063 36.04257813 -20 35 C-20.64324219 34.30777344 -21.28648438 33.61554688 -21.94921875 32.90234375 C-23 31 -23 31 -22.46875 28.59375 C-20.75572391 25.56861882 -18.78008871 23.1264313 -16.5 20.5 C-12.20656444 15.49033014 -8.12950587 10.35333655 -4.13671875 5.1015625 C-1.07309117 1.07309117 -1.07309117 1.07309117 0 0 Z " fill="#0D0201" transform="translate(116,98)"/>
<path d="M0 0 C0.33 0 0.66 0 1 0 C0.99250732 1.00675781 0.98501465 2.01351562 0.97729492 3.05078125 C-0.01441428 26.10812871 -0.01441428 26.10812871 9.5 46 C11.6050049 48.08589183 13.77796519 50.03525343 16 52 C17.40625 54.375 17.40625 54.375 18 56 C17.34773438 56.845625 16.69546875 57.69125 16.0234375 58.5625 C14.67785877 60.3069881 13.3344689 62.0530127 11.99633789 63.80322266 C10.03907705 66.36263742 8.07725455 68.90569723 6.03515625 71.3984375 C2.60408408 75.64323583 1.22899567 78.50410385 1 84 C0.67 84 0.34 84 0 84 C0 56.28 0 28.56 0 0 Z " fill="#C05530" transform="translate(137,73)"/>
<path d="M0 0 C0.99 0.33 1.98 0.66 3 1 C2.175 1.70125 1.35 2.4025 0.5 3.125 C-2.2570528 5.76799993 -2.2570528 5.76799993 -2.4375 9.125 C-2.17844932 12.19080542 -2.17844932 12.19080542 0 15 C0.25878906 18.01513672 0.25878906 18.01513672 0.265625 21.6796875 C0.26849518 22.65435471 0.26849518 22.65435471 0.27142334 23.64871216 C0.2727828 25.0221597 0.26910299 26.3956202 0.26074219 27.76904297 C0.2500732 29.86064919 0.26062689 31.9513898 0.2734375 34.04296875 C0.27211518 35.38021022 0.2695513 36.71745115 0.265625 38.0546875 C0.26336914 39.26624512 0.26111328 40.47780273 0.25878906 41.72607422 C0.00388129 44.95089802 -0.46572343 47.16176701 -2 50 C-4.71484375 51.07421875 -4.71484375 51.07421875 -7.9375 51.6875 C-11.67040348 52.42682353 -13.79897483 52.86598322 -17 55 C-17.79798218 57.41607417 -17.79798218 57.41607417 -18.1875 60.125 C-18.42533203 61.49011719 -18.42533203 61.49011719 -18.66796875 62.8828125 C-18.83232422 63.93082031 -18.83232422 63.93082031 -19 65 C-15.85803807 64.05010453 -13.17534198 63.10854503 -10.375 61.375 C-8 60 -8 60 -4 60 C-2.9362731 70.13073235 -2.9362731 70.13073235 -5.20703125 74.12109375 C-6.37665257 75.39480315 -7.58665536 76.6320414 -8.82421875 77.83984375 C-11.38948101 80.38668401 -13.50114885 83.12136319 -15.6875 86 C-16.10781494 86.54994629 -16.52812988 87.09989258 -16.96118164 87.66650391 C-19.27962279 90.70571066 -21.57203418 93.76355432 -23.8515625 96.83203125 C-24.3369751 97.48445801 -24.8223877 98.13688477 -25.32250977 98.80908203 C-26.31685252 100.14606002 -27.30952644 101.48428077 -28.30053711 102.82373047 C-30.9881364 106.42595326 -33.74904884 109.9318362 -36.65234375 113.36328125 C-37.25264404 114.07701904 -37.85294434 114.79075684 -38.47143555 115.52612305 C-39.63061065 116.89406105 -40.80215893 118.2516387 -41.98754883 119.59692383 C-44.43525643 122.48946425 -45.86631383 124.34715219 -46.63671875 128.109375 C-45.79626289 131.92494146 -44.17794258 133.73487624 -41.5625 136.625 C-40.64714079 137.66307878 -39.73444959 138.70351528 -38.82421875 139.74609375 C-38.35677246 140.27702637 -37.88932617 140.80795898 -37.40771484 141.35498047 C-35.10883804 144.04138905 -32.98739023 146.85354436 -30.875 149.6875 C-29.75738281 151.17830078 -29.75738281 151.17830078 -28.6171875 152.69921875 C-27 155 -27 155 -27 156 C-28.65 156 -30.3 156 -32 156 C-31.67 164.25 -31.34 172.5 -31 181 C-25.121875 180.8453125 -25.121875 180.8453125 -19.125 180.6875 C-6.52110388 180.79513569 -6.52110388 180.79513569 -2.1484375 184.85546875 C1.16130902 188.82051578 3.36681356 193.10044067 5 198 C1.09934676 196.69978225 -0.36040785 194.2580763 -2.6875 191.0625 C-3.10322266 190.51142578 -3.51894531 189.96035156 -3.94726562 189.39257812 C-7 185.26712592 -7 185.26712592 -7 183 C-7.7520874 183.00523682 -8.5041748 183.01047363 -9.27905273 183.01586914 C-12.66519342 183.03657227 -16.05132084 183.04963877 -19.4375 183.0625 C-20.62150391 183.07087891 -21.80550781 183.07925781 -23.02539062 183.08789062 C-24.15009766 183.09111328 -25.27480469 183.09433594 -26.43359375 183.09765625 C-27.99678345 183.10551147 -27.99678345 183.10551147 -29.59155273 183.11352539 C-32 183 -32 183 -33 182 C-33.08758003 180.00035018 -33.10696576 177.9976389 -33.09765625 175.99609375 C-33.09443359 174.78115234 -33.09121094 173.56621094 -33.08789062 172.31445312 C-33.07951172 171.03505859 -33.07113281 169.75566406 -33.0625 168.4375 C-33.05798828 167.15423828 -33.05347656 165.87097656 -33.04882812 164.54882812 C-33.03699545 161.36583978 -33.02051068 158.18294238 -33 155 C-32.34 155 -31.68 155 -31 155 C-33.44975079 150.63845046 -36.38653644 146.83139408 -39.5 142.9375 C-40.92866073 141.13935805 -42.35643287 139.34116748 -43.76953125 137.53076172 C-45.05308967 135.88983333 -45.05308967 135.88983333 -46.84375 134.06640625 C-48.69020356 130.76649432 -48.73936159 127.61494091 -48 124 C-46.62270073 121.36072035 -44.79228601 119.27227349 -42.8125 117.0625 C-41.69975637 115.74914393 -40.58915423 114.4339711 -39.48046875 113.1171875 C-38.90345215 112.44139648 -38.32643555 111.76560547 -37.73193359 111.06933594 C-34.91098978 107.69883696 -32.27289388 104.19444498 -29.625 100.6875 C-24.32561348 93.7157694 -18.9672425 86.79192403 -13.58056641 79.88745117 C-13.02546387 79.17564697 -12.47036133 78.46384277 -11.8984375 77.73046875 C-11.41036621 77.10551514 -10.92229492 76.48056152 -10.41943359 75.83666992 C-9.95102051 75.23056885 -9.48260742 74.62446777 -9 74 C-8.45126221 73.30720947 -7.90252441 72.61441895 -7.3371582 71.90063477 C-5.74591487 69.63884376 -5.67620878 68.47582431 -5.8125 65.75 C-5.874375 64.5125 -5.93625 63.275 -6 62 C-9.60846776 63.23794673 -9.60846776 63.23794673 -12.5 65.625 C-14 67 -14 67 -16.5625 67.375 C-17.7690625 67.189375 -17.7690625 67.189375 -19 67 C-21.27728979 63.58406532 -21.18945272 61.96776057 -20.51171875 57.99609375 C-19.63962075 54.59424583 -18.76131454 53.24758161 -16 51 C-12.87712588 50.06987172 -9.78526931 49.36992923 -6.58203125 48.7734375 C-5.72996094 48.51820312 -4.87789062 48.26296875 -4 48 C-0.91733344 38.75200033 -1.2175507 25.6015812 -2 16 C-2.66 15.01 -3.32 14.02 -4 13 C-4.48204074 9.95641721 -4.47269576 7.0450401 -4 4 C-2 1.4375 -2 1.4375 0 0 Z " fill="#2C0401" transform="translate(120,0)"/>
<path d="M0 0 C2.53903996 0.35021241 3.82093298 0.84011873 5.75 2.5625 C7.63044044 6.22935886 7.32613053 8.89075538 7 13 C6.01 14.485 6.01 14.485 5 16 C4.82679525 18.80943969 4.76598838 21.50610485 4.8125 24.3125 C4.81894531 25.10833496 4.82539063 25.90416992 4.83203125 26.72412109 C4.92303773 33.84111191 5.36173174 40.91066329 6 48 C6.73605469 48.10957031 7.47210938 48.21914063 8.23046875 48.33203125 C18.56922892 50.01190906 18.56922892 50.01190906 22 53 C24.288513 56.92316514 24.25799928 60.5280124 24 65 C23 66 23 66 19.5625 66.25 C18.386875 66.1675 17.21125 66.085 16 66 C15.34 65.01 14.68 64.02 14 63 C11.44816596 61.79549696 11.44816596 61.79549696 9 61 C8.84900176 70.21089251 13.11556157 74.31797202 19 81 C20.66541607 83.11339191 22.31160003 85.2320305 23.9375 87.375 C24.78109925 88.4779799 25.62485014 89.58084383 26.46875 90.68359375 C26.88769531 91.23257324 27.30664062 91.78155273 27.73828125 92.34716797 C29.79978796 95.04770985 31.86771526 97.74329948 33.9375 100.4375 C34.34154053 100.96375977 34.74558105 101.49001953 35.16186523 102.03222656 C38.87561029 106.85914495 42.64004038 111.64576882 46.42163086 116.41967773 C52.60871263 124.25331242 52.60871263 124.25331242 52.46337891 129.77978516 C51.54404893 134.18462542 48.52204484 137.31677133 45.6875 140.6875 C44.50183695 142.14806218 43.31818354 143.61025847 42.13671875 145.07421875 C41.5854834 145.7501709 41.03424805 146.42612305 40.46630859 147.12255859 C38.76244025 149.30416824 37.32679964 151.57152557 36 154 C36.66 154.33 37.32 154.66 38 155 C38.02886338 159.47915328 38.04675187 163.95828291 38.0625 168.4375 C38.07087891 169.71689453 38.07925781 170.99628906 38.08789062 172.31445312 C38.09111328 173.52939453 38.09433594 174.74433594 38.09765625 175.99609375 C38.10289307 177.12200928 38.10812988 178.2479248 38.11352539 179.40795898 C38 182 38 182 37 183 C35.27249267 182.9869729 33.54536001 182.91729068 31.8203125 182.82421875 C20.35429443 182.04619679 20.35429443 182.04619679 9.74072266 185.41699219 C5.92691213 189.05831882 3.36153144 193.31921518 1 198 C0.34 197.67 -0.32 197.34 -1 197 C1.66829313 191.19541468 4.54017783 185.58989364 10 182 C18.53451194 179.75414718 27.25556357 180.68928398 36 181 C36.33 172.75 36.66 164.5 37 156 C35.02 156 33.04 156 31 156 C34.07432524 151.84622632 37.18930641 147.7369773 40.4296875 143.7109375 C40.996875 142.99679688 41.5640625 142.28265625 42.1484375 141.546875 C43.31239104 140.08271624 44.48716074 138.62709927 45.671875 137.1796875 C48.11163893 134.07657762 49.82100982 131.78419453 50.70703125 127.90234375 C49.72238347 123.86039182 47.48296887 121.2538838 44.8125 118.1875 C43.69991939 116.85575462 42.58931106 115.52235958 41.48046875 114.1875 C40.90345215 113.49914062 40.32643555 112.81078125 39.73193359 112.1015625 C36.93212455 108.70421879 34.28097067 105.19767063 31.625 101.6875 C26.93021395 95.51462001 22.20034682 89.37053907 17.4375 83.25 C16.56182373 82.12404419 16.56182373 82.12404419 15.66845703 80.9753418 C15.11657715 80.26676025 14.56469727 79.55817871 13.99609375 78.828125 C13.47998535 78.16063232 12.96387695 77.49313965 12.43212891 76.80541992 C11.2112449 75.26630686 9.91885001 73.78436981 8.61328125 72.31640625 C6.67380278 69.53163449 6.57129553 68.03820884 6.75 64.6875 C6.78609375 63.80449219 6.8221875 62.92148437 6.859375 62.01171875 C6.92898437 61.01591797 6.92898437 61.01591797 7 60 C10.25 59.75 10.25 59.75 14 60 C16.1875 61.9375 16.1875 61.9375 18 64 C20.1381966 64.7872678 20.1381966 64.7872678 22 65 C22.36139933 61.205307 22.09945894 59.19891788 20.375 55.75 C16.20346453 50.91980104 11.10713508 50.73285621 5 50 C3.47297257 42.00905065 2.66790622 34.05126044 2.1875 25.9375 C2.12248291 25.02137939 2.05746582 24.10525879 1.99047852 23.16137695 C1.65320037 16.58109858 1.65320037 16.58109858 3.45703125 13.55859375 C3.96621094 13.04425781 4.47539062 12.52992187 5 12 C5.53908066 8.90028621 5.63053923 6.96332382 3.875 4.28125 C2.64550464 2.80026695 1.3274688 1.39384224 0 0 Z " fill="#2F0300" transform="translate(132,0)"/>
<path d="M0 0 C0.33 0 0.66 0 1 0 C2.82287865 19.95631456 2.82287865 19.95631456 -2.43017578 26.62207031 C-4.51086609 28.88429736 -6.69179317 30.97168597 -9 33 C-10.00536757 33.99460346 -11.00827088 34.99179697 -12 36 C-12 35.34 -12 34.68 -12 34 C-12.66 34 -13.32 34 -14 34 C-14 33.34 -14 32.68 -14 32 C-17.47147842 31.25042843 -17.47147842 31.25042843 -21 31 C-22.38232443 32.62626404 -23.71937515 34.2925002 -25 36 C-25.66 35.67 -26.32 35.34 -27 35 C-6.5008744 7.51928814 -6.5008744 7.51928814 0 0 Z " fill="#A04423" transform="translate(116,77)"/>
<path d="M0 0 C3.48638115 3.35205473 6.46164608 6.78386274 9.3125 10.6875 C12.90078873 15.55603245 16.61303944 20.28242265 20.46875 24.94140625 C22 27 22 27 23 30 C20.54769689 32.96857745 18.68155185 33.26368963 15 34 C13.35389467 35.47911301 13.35389467 35.47911301 12 37 C4.85363619 29.48142974 -0.66974242 23.12076361 -0.84375 12.36401367 C-0.70822569 8.22381646 -0.46832046 4.11641679 0 0 Z " fill="#9B4224" transform="translate(139,76)"/>
<path d="M0 0 C1.32 0.33 2.64 0.66 4 1 C3.84917969 1.6084375 3.69835937 2.216875 3.54296875 2.84375 C2.85594661 7.97754178 3.40865665 11.54935233 6.47265625 15.73046875 C9.27254407 19.21866778 12.24100877 22.56095951 15.20410156 25.91064453 C18.01998824 29.18665843 20.56957525 32.6445174 23.125 36.125 C26.95161211 41.28597841 30.83419778 46.3924173 34.8125 51.4375 C35.26488037 52.0145166 35.71726074 52.5915332 36.18334961 53.18603516 C38.16811384 55.71116746 40.17183109 58.20386232 42.2421875 60.66015625 C42.88414062 61.43230469 43.52609375 62.20445313 44.1875 63 C45.01314453 63.9590625 45.01314453 63.9590625 45.85546875 64.9375 C47.5057718 67.91142495 47.51785246 69.63603045 47 73 C45.41028114 75.46640205 43.88586809 77.53949253 42 79.75 C41.50395264 80.35473145 41.00790527 80.95946289 40.49682617 81.58251953 C39.48970672 82.8093535 38.47695073 84.03158296 37.45849609 85.24902344 C35.36807646 87.75864674 33.34262759 90.31638318 31.3125 92.875 C30.20898532 94.25052331 29.10509978 95.62574984 28 97 C29.65 97.33 31.3 97.66 33 98 C33 106.25 33 114.5 33 123 C24.09 123 15.18 123 6 123 C6 122.67 6 122.34 6 122 C14.25 122 22.5 122 31 122 C31 114.41 31 106.82 31 99 C29.02 99 27.04 99 25 99 C26.43975782 94.64908351 28.6290913 91.81612114 31.625 88.375 C32.52041553 87.32086368 33.41360322 86.2648314 34.3046875 85.20703125 C34.75295898 84.6754541 35.20123047 84.14387695 35.66308594 83.59619141 C37.73846248 81.11832218 39.76722484 78.61523666 41.75 76.0625 C42.42546875 75.20785156 43.1009375 74.35320312 43.796875 73.47265625 C45.27687047 71.07091528 45.27687047 71.07091528 44.48828125 68.53125 C42.7285144 65.53826072 40.71649791 63.05888257 38.4375 60.4375 C34.17368225 55.45609408 30.1822496 50.33309349 26.27734375 45.0625 C23.90381538 41.87065395 21.49185756 38.71187719 19.0625 35.5625 C18.65338379 35.03188965 18.24426758 34.5012793 17.82275391 33.95458984 C16.98538448 32.86898966 16.14781702 31.78354221 15.31005859 30.69824219 C12.99502337 27.69723864 10.68541123 24.69206382 8.375 21.6875 C6.93125 19.810625 5.4875 17.93375 4 16 C3.67 23.59 3.34 31.18 3 39 C2.67 39 2.34 39 2 39 C1.97494385 37.88963379 1.9498877 36.77926758 1.92407227 35.63525391 C1.83005085 31.52396681 1.72981743 27.41285077 1.62768555 23.30175781 C1.5843167 21.52087397 1.54264306 19.73994802 1.50268555 17.95898438 C1.4450301 15.40221452 1.3813223 12.84565702 1.31640625 10.2890625 C1.29969376 9.49005524 1.28298126 8.69104797 1.26576233 7.86782837 C1.24607009 3.80193632 1.24607009 3.80193632 0 0 Z " fill="#B96142" transform="translate(136,58)"/>
<path d="M0 0 C0.33 0 0.66 0 1 0 C1 12.21 1 24.42 1 37 C-4.625 31.375 -4.625 31.375 -6.67578125 28.66796875 C-7.11083984 28.09755859 -7.54589844 27.52714844 -7.99414062 26.93945312 C-8.42919922 26.36130859 -8.86425781 25.78316406 -9.3125 25.1875 C-9.76689453 24.59001953 -10.22128906 23.99253906 -10.68945312 23.37695312 C-11.79633917 21.92052412 -12.89865264 20.46062183 -14 19 C-11.10798474 14.56422834 -8.04353116 10.31917261 -4.8125 6.125 C-4.36197266 5.53203125 -3.91144531 4.9390625 -3.44726562 4.328125 C-2.32344799 2.86564569 -1.16482152 1.43003589 0 0 Z " fill="#C0512A" transform="translate(116,110)"/>
<path d="M0 0 C1.49249268 0.01571045 1.49249268 0.01571045 3.01513672 0.03173828 C4.6296875 0.04140625 4.6296875 0.04140625 6.27685547 0.05126953 C7.40478516 0.06802734 8.53271484 0.08478516 9.69482422 0.10205078 C11.39832031 0.11558594 11.39832031 0.11558594 13.13623047 0.12939453 C15.94763721 0.1530198 18.7586272 0.18596065 21.56982422 0.22705078 C21.56982422 0.55705078 21.56982422 0.88705078 21.56982422 1.22705078 C19.58982422 1.22705078 17.60982422 1.22705078 15.56982422 1.22705078 C15.56982422 4.52705078 15.56982422 7.82705078 15.56982422 11.22705078 C15.23982422 11.22705078 14.90982422 11.22705078 14.56982422 11.22705078 C14.56982422 7.92705078 14.56982422 4.62705078 14.56982422 1.22705078 C11.26982422 1.55705078 7.96982422 1.88705078 4.56982422 2.22705078 C4.56982422 34.56705078 4.56982422 66.90705078 4.56982422 100.22705078 C3.90982422 100.22705078 3.24982422 100.22705078 2.56982422 100.22705078 C2.56982422 72.50705078 2.56982422 44.78705078 2.56982422 16.22705078 C1.90982422 16.22705078 1.24982422 16.22705078 0.56982422 16.22705078 C0.2981543 16.8080957 0.02648437 17.38914062 -0.25341797 17.98779297 C-1.42321304 20.21380136 -2.72015156 22.06927422 -4.25830078 24.05517578 C-4.81130859 24.77318359 -5.36431641 25.49119141 -5.93408203 26.23095703 C-6.79839844 27.34277344 -6.79839844 27.34277344 -7.68017578 28.47705078 C-8.81075489 29.94030604 -9.94096477 31.40384667 -11.07080078 32.86767578 C-11.62445313 33.58375 -12.17810547 34.29982422 -12.74853516 35.03759766 C-15.33967285 38.41119272 -17.88789197 41.81655742 -20.43017578 45.22705078 C-21.42017578 44.89705078 -22.41017578 44.56705078 -23.43017578 44.22705078 C-22.93130859 43.63021484 -22.43244141 43.03337891 -21.91845703 42.41845703 C-16.36111628 35.70375268 -11.03098897 28.84227818 -5.77319336 21.89135742 C-5.23847412 21.18615967 -4.70375488 20.48096191 -4.15283203 19.75439453 C-3.67595947 19.12267334 -3.19908691 18.49095215 -2.70776367 17.84008789 C-1.43017578 16.22705078 -1.43017578 16.22705078 0.56982422 14.22705078 C1.03379115 11.33481575 1.03379115 11.33481575 1.19482422 8.10205078 C1.26958984 7.00634766 1.34435547 5.91064453 1.42138672 4.78173828 C1.47037109 3.93869141 1.51935547 3.09564453 1.56982422 2.22705078 C-0.41017578 2.22705078 -2.39017578 2.22705078 -4.43017578 2.22705078 C-2.43017578 0.22705078 -2.43017578 0.22705078 0 0 Z " fill="#A1583E" transform="translate(114.43017578125,57.77294921875)"/>
<path d="M0 0 C3.85201945 3.71220023 7.24472585 7.61985415 10.5625 11.8125 C11.08062256 12.463396 11.59874512 13.11429199 12.13256836 13.78491211 C16.36973086 19.13748765 20.47483593 24.58351998 24.54882812 30.06079102 C28.84135967 35.82304803 33.26164454 41.47704092 37.72265625 47.109375 C38.47417969 48.06328125 39.22570312 49.0171875 40 50 C40.63808594 50.68578125 41.27617187 51.3715625 41.93359375 52.078125 C43 54 43 54 42.5078125 56.3359375 C40.60489916 59.69807973 38.31257522 62.64413716 35.875 65.625 C34.88509961 66.85807692 33.89683624 68.09246968 32.91015625 69.328125 C32.42047363 69.94107422 31.93079102 70.55402344 31.42626953 71.18554688 C28.14812721 75.35589157 25.07687046 79.68003861 22 84 C23.98 84 25.96 84 28 84 C28 91.59 28 99.18 28 107 C19.75 107 11.5 107 3 107 C3 106.67 3 106.34 3 106 C10.92 106 18.84 106 27 106 C27 99.07 27 92.14 27 85 C25.02 85 23.04 85 21 85 C20.34 84.67 19.68 84.34 19 84 C20.66344146 80.21612768 23.09478692 77.10712473 25.625 73.875 C26.06432861 73.30458984 26.50365723 72.73417969 26.95629883 72.14648438 C29.07353899 69.40962943 31.22607777 66.73499257 33.47265625 64.1015625 C34.56900391 62.81378906 34.56900391 62.81378906 35.6875 61.5 C36.35136719 60.7471875 37.01523438 59.994375 37.69921875 59.21875 C39.1784315 57.09676285 39.1784315 57.09676285 39.0859375 54.6953125 C37.45214178 50.64020801 34.76123869 47.67504613 31.9375 44.375 C30.7426146 42.94452404 29.54990493 41.51222788 28.359375 40.078125 C27.77994141 39.38138672 27.20050781 38.68464844 26.60351562 37.96679688 C23.85145215 34.59124521 21.34600865 31.04939184 18.8203125 27.50390625 C16.97084405 24.95989493 15.0394436 22.50848317 13.0625 20.0625 C9.9984093 16.26132187 6.96964181 12.43775645 4 8.5625 C2.8553125 7.07943359 2.8553125 7.07943359 1.6875 5.56640625 C0 3 0 3 0 0 Z " fill="#441307" transform="translate(139,73)"/>
<path d="M0 0 C0.66 0 1.32 0 2 0 C1.11351539 4.49379041 -1.44070302 7.30947723 -4.3125 10.75 C-8.68912518 16.09993927 -12.94383699 21.51137628 -17.0625 27.0625 C-21.84535216 33.49623802 -26.74534769 39.82518064 -31.72265625 46.109375 C-32.47417969 47.06328125 -33.22570312 48.0171875 -34 49 C-34.63808594 49.68578125 -35.27617188 50.3715625 -35.93359375 51.078125 C-37.25255987 52.97497259 -37.25255987 52.97497259 -36.58203125 55.26171875 C-34.3482393 59.12810925 -31.56922336 62.41264214 -28.6875 65.8125 C-24.32090868 70.98021 -20.42981834 76.15945919 -17 82 C-17.99 82.99 -17.99 82.99 -19 84 C-19.54914063 83.15179688 -20.09828125 82.30359375 -20.6640625 81.4296875 C-23.05386647 77.84603247 -25.69179229 74.49150906 -28.375 71.125 C-29.34646994 69.88811175 -30.31782487 68.65113317 -31.2890625 67.4140625 C-32.86037498 65.42184328 -34.45083761 63.46473587 -36.0859375 61.5234375 C-38.52159541 58.56176896 -39.90982035 56.86572464 -40.3125 53 C-39.04742251 50.10839432 -37.90566447 48.62150179 -35.8125 46.32421875 C-32.22466749 42.29956269 -28.93131678 38.11641051 -25.6875 33.8125 C-24.55097211 32.3149593 -23.41425145 30.81756488 -22.27734375 29.3203125 C-21.72288574 28.58844727 -21.16842773 27.85658203 -20.59716797 27.10253906 C-18.33051142 24.11867385 -16.04128034 21.15247226 -13.75 18.1875 C-11.28195814 14.99356348 -8.83511751 11.78967029 -6.453125 8.53125 C-6.04094727 7.97026611 -5.62876953 7.40928223 -5.20410156 6.83129883 C-4.06828067 5.28071447 -2.94013905 3.72451336 -1.8125 2.16796875 C-1.214375 1.45253906 -0.61625 0.73710938 0 0 Z " fill="#330A03" transform="translate(115,74)"/>
<path d="M0 0 C3.85201945 3.71220023 7.24472585 7.61985415 10.5625 11.8125 C11.08062256 12.463396 11.59874512 13.11429199 12.13256836 13.78491211 C16.36745523 19.13461297 20.47052751 24.57759919 24.54223633 30.05200195 C29.56946213 36.80066418 34.76847967 43.40910824 40 50 C39.34 50.66 38.68 51.32 38 52 C31.39270945 43.98139945 24.85140399 35.97014556 18.8203125 27.50390625 C16.97084405 24.95989493 15.0394436 22.50848317 13.0625 20.0625 C9.9984093 16.26132187 6.96964181 12.43775645 4 8.5625 C2.8553125 7.07943359 2.8553125 7.07943359 1.6875 5.56640625 C0 3 0 3 0 0 Z " fill="#310802" transform="translate(139,73)"/>
<path d="M0 0 C3.3 0 6.6 0 10 0 C10 3.3 10 6.6 10 10 C9.34 10 8.68 10 8 10 C8 38.71 8 67.42 8 97 C7.67 97 7.34 97 7 97 C6.98969254 95.89832489 6.97938507 94.79664978 6.96876526 93.66159058 C6.87096264 83.27380725 6.76822213 72.88608291 6.66066074 62.49839592 C6.60552224 57.15813086 6.55211689 51.81786024 6.50268555 46.47753906 C6.45490801 41.3227993 6.40256064 36.16812425 6.34705925 31.01346207 C6.32669628 29.04793029 6.30797339 27.08238081 6.29092598 25.11681747 C6.2667475 22.36150475 6.23671181 19.60631294 6.20532227 16.85107422 C6.1995668 16.04043015 6.19381134 15.22978607 6.18788147 14.39457703 C6.13313269 10.16007974 5.83049611 6.17118345 5 2 C3.35 1.67 1.7 1.34 0 1 C0 0.67 0 0.34 0 0 Z " fill="#0C0000" transform="translate(119,59)"/>
<path d="M0 0 C2 2 2 2 2.375 4.3125 C1.8571289 8.02390953 0.72327832 9.43038629 -2 12 C-4.96672677 12.37233017 -7.31856241 12.4808246 -10.25 12.3125 C-10.99507812 12.28994141 -11.74015625 12.26738281 -12.5078125 12.24414062 C-14.339409 12.18543561 -16.16996653 12.09575757 -18 12 C-16.38617243 8.59787701 -14.41396234 5.89675481 -12 3 C-9.0625 3.375 -9.0625 3.375 -6 4 C-5.67 4.66 -5.34 5.32 -5 6 C-3.68 5.67 -2.36 5.34 -1 5 C-1 3.68 -1 2.36 -1 1 C-0.67 0.67 -0.34 0.34 0 0 Z " fill="#BB542F" transform="translate(159,146)"/>
<path d="M0 0 C0.721875 0.00257813 1.44375 0.00515625 2.1875 0.0078125 C2.909375 0.00523437 3.63125 0.00265625 4.375 0 C6.1875 0.1328125 6.1875 0.1328125 7.1875 1.1328125 C7.25994053 3.15245449 7.27127188 5.17448374 7.25 7.1953125 C7.24097656 8.30003906 7.23195312 9.40476563 7.22265625 10.54296875 C7.21105469 11.39761719 7.19945312 12.25226563 7.1875 13.1328125 C5.70843108 13.15970466 4.22922517 13.17915871 2.75 13.1953125 C1.51443359 13.21271484 1.51443359 13.21271484 0.25390625 13.23046875 C-1.8125 13.1328125 -1.8125 13.1328125 -2.8125 12.1328125 C-2.91101171 10.30165367 -2.94222629 8.46661317 -2.9375 6.6328125 C-2.94007813 5.6325 -2.94265625 4.6321875 -2.9453125 3.6015625 C-2.76244728 0.20242071 -2.76244728 0.20242071 0 0 Z " fill="#DBDBDB" transform="translate(151.8125,161.8671875)"/>
<path d="M0 0 C0.66 0.33 1.32 0.66 2 1 C1.59160889 1.52432617 1.18321777 2.04865234 0.76245117 2.58886719 C-1.0962331 4.97562575 -2.95437171 7.36280858 -4.8125 9.75 C-5.77639648 10.9875 -5.77639648 10.9875 -6.75976562 12.25 C-7.38173828 13.04921875 -8.00371094 13.8484375 -8.64453125 14.671875 C-9.21534424 15.4050293 -9.78615723 16.13818359 -10.37426758 16.89355469 C-10.91075928 17.58868164 -11.44725098 18.28380859 -12 19 C-12.56340088 19.70253906 -13.12680176 20.40507813 -13.70727539 21.12890625 C-15.20813647 22.93173274 -15.20813647 22.93173274 -15.0390625 25.265625 C-13.50796689 29.29482396 -11.01595907 32.37336788 -8.375 35.75 C-7.83391602 36.45648682 -7.29283203 37.16297363 -6.73535156 37.89086914 C-5.16650555 39.93491701 -3.58613622 41.96935144 -2 44 C-0.83597656 45.49080078 -0.83597656 45.49080078 0.3515625 47.01171875 C1.52515078 48.51130378 2.70382524 50.00694263 3.890625 51.49609375 C5 53 5 53 5 54 C3.02 54 1.04 54 -1 54 C-0.34 53.34 0.32 52.68 1 52 C-0.16841409 50.5094129 -1.33703551 49.01898794 -2.5065918 47.52929688 C-3.5072315 46.25334629 -4.50607628 44.97598615 -5.50317383 43.69726562 C-7.79240911 40.76928541 -10.09941594 37.88342205 -12.51171875 35.0546875 C-13.22972656 34.21164063 -13.94773437 33.36859375 -14.6875 32.5 C-15.33074219 31.7678125 -15.97398438 31.035625 -16.63671875 30.28125 C-18.46839107 27.21621667 -18.5585532 25.52111935 -18 22 C-16.09375 19.140625 -16.09375 19.140625 -13.5 16.25 C-12.58495015 15.20920056 -11.67090359 14.16751828 -10.7578125 13.125 C-10.06606934 12.34769531 -10.06606934 12.34769531 -9.36035156 11.5546875 C-7.28524591 9.18313818 -5.33209854 6.71917092 -3.375 4.25 C-2.39660156 3.02023438 -2.39660156 3.02023438 -1.3984375 1.765625 C-0.93695313 1.18296875 -0.47546875 0.6003125 0 0 Z " fill="#B65E3F" transform="translate(91,103)"/>
<path d="M0 0 C6.93359375 -0.09765625 6.93359375 -0.09765625 9 0 C10 1 10 1 10.125 3.9375 C10 7 10 7 9 9 C9.39938767 11.09821215 9.39938767 11.09821215 10 13 C9.01 13 8.02 13 7 13 C6.67 12.01 6.34 11.02 6 10 C5.01 9.67 4.02 9.34 3 9 C3 10.65 3 12.3 3 14 C2.01 14 1.02 14 0 14 C0 9.38 0 4.76 0 0 Z " fill="#9B9B9B" transform="translate(110,162)"/>
<path d="M0 0 C0 3 0 3 -1 5 C-0.01 5.33 0.98 5.66 2 6 C0.02 6.99 0.02 6.99 -2 8 C-2 8.99 -2 9.98 -2 11 C-1.01 11.66 -0.02 12.32 1 13 C2.66621425 11.8354799 2.66621425 11.8354799 4 10 C3.76956136 7.34533951 3.76956136 7.34533951 3 5 C3.66 5.33 4.32 5.66 5 6 C5 6.66 5 7.32 5 8 C6.32 8 7.64 8 9 8 C7.6062718 12.43458973 5.39417765 14.87378374 2 18 C2 17.34 2 16.68 2 16 C1.34 16 0.68 16 0 16 C0 15.34 0 14.68 0 14 C-3.47147842 13.25042843 -3.47147842 13.25042843 -7 13 C-8.38232443 14.62626404 -9.71937515 16.2925002 -11 18 C-11.66 17.67 -12.32 17.34 -13 17 C-11.58435393 15.10339726 -10.16751545 13.20770483 -8.75 11.3125 C-7.56664063 9.72888672 -7.56664063 9.72888672 -6.359375 8.11328125 C-4.28173517 5.37175982 -2.16319353 2.6742232 0 0 Z " fill="#93472D" transform="translate(102,95)"/>
<path d="M0 0 C3.85438351 1.51918269 5.73605496 3.82695962 8.25 7.0625 C8.95640625 7.96097656 9.6628125 8.85945312 10.390625 9.78515625 C12 12 12 12 12 13 C6.72 13 1.44 13 -4 13 C-3.67 11.68 -3.34 10.36 -3 9 C-2.34 8.67 -1.68 8.34 -1 8 C0.04808041 6.02477154 1.0520411 4.02518491 2 2 C1.34 2 0.68 2 0 2 C0 1.34 0 0.68 0 0 Z " fill="#BE532F" transform="translate(103,144)"/>
<path d="M0 0 C0.33 0 0.66 0 1 0 C0.99250732 1.00675781 0.98501465 2.01351562 0.97729492 3.05078125 C0.16082207 27.54302581 0.16082207 27.54302581 11.47729492 48.13671875 C12.92830432 49.48788898 14.45602562 50.75612205 16 52 C15.67 52.66 15.34 53.32 15 54 C10.63425542 49.02718443 6.29785078 44.03163018 2 39 C1.67 41.97 1.34 44.94 1 48 C0.67 48 0.34 48 0 48 C0 32.16 0 16.32 0 0 Z " fill="#93523C" transform="translate(137,73)"/>
<path d="M0 0 C0.33 0 0.66 0 1 0 C1.33 4.29 1.66 8.58 2 13 C3.010625 12.938125 4.02125 12.87625 5.0625 12.8125 C9.50421454 13.02401022 12.13552122 13.81255918 16 16 C18.5 18.8125 18.5 18.8125 20 22 C19.75 25.375 19.75 25.375 19 28 C14.33933162 27.37017995 14.33933162 27.37017995 12.625 25.5 C10.09681501 23.16629078 7.32587023 23.31376134 4 23 C4.33 22.34 4.66 21.68 5 21 C6.27875 21.103125 7.5575 21.20625 8.875 21.3125 C9.59429687 21.37050781 10.31359375 21.42851563 11.0546875 21.48828125 C13 22 13 22 15 25 C15.99 25.33 16.98 25.66 18 26 C17.36395611 21.57647943 17.36395611 21.57647943 15 18 C11.76608119 16.87104186 8.73154875 16.08112359 5.35913086 15.54394531 C3.37109375 15.1796875 3.37109375 15.1796875 0 14 C-1.46484375 10.8828125 -1.46484375 10.8828125 -2 8 C-1.34 8 -0.68 8 0 8 C0 5.36 0 2.72 0 0 Z " fill="#B05B3E" transform="translate(135,37)"/>
<path d="M0 0 C0.66 0 1.32 0 2 0 C1.41826805 3.65425988 -0.05425771 5.45967587 -2.5625 8.125 C-5.25993355 10.65417859 -5.25993355 10.65417859 -6 14 C-4.68 14.66 -3.36 15.32 -2 16 C-2.185625 16.61875 -2.37125 17.2375 -2.5625 17.875 C-3.23686176 20.04160178 -3.23686176 20.04160178 -2 22 C-3.65 22 -5.3 22 -7 22 C-7.33 22.66 -7.66 23.32 -8 24 C-8 22.68 -8 21.36 -8 20 C-9.98 19.67 -11.96 19.34 -14 19 C-13.6596875 18.55011719 -13.319375 18.10023438 -12.96875 17.63671875 C-12.4840625 16.99347656 -11.999375 16.35023438 -11.5 15.6875 C-10.68789062 14.61048828 -10.68789062 14.61048828 -9.859375 13.51171875 C-8.51548106 11.6963326 -7.19544906 9.86319932 -5.890625 8.01953125 C-5.18421875 7.02308594 -4.4778125 6.02664062 -3.75 5 C-2.75226563 3.576875 -2.75226563 3.576875 -1.734375 2.125 C-1.16203125 1.42375 -0.5896875 0.7225 0 0 Z " fill="#A65235" transform="translate(161,130)"/>
<path d="M0 0 C2.5625 0.1875 2.5625 0.1875 4.5625 2.1875 C4.5625 3.1775 4.5625 4.1675 4.5625 5.1875 C5.5525 5.1875 6.5425 5.1875 7.5625 5.1875 C7.8925 3.8675 8.2225 2.5475 8.5625 1.1875 C8.6875 4.0625 8.6875 4.0625 8.5625 7.1875 C7.9025 7.8475 7.2425 8.5075 6.5625 9.1875 C6.26190057 11.55259361 6.06734988 13.93191881 5.9375 16.3125 C5.86273438 17.59382813 5.78796875 18.87515625 5.7109375 20.1953125 C5.66195312 21.18273437 5.61296875 22.17015625 5.5625 23.1875 C5.2325 23.1875 4.9025 23.1875 4.5625 23.1875 C4.5625 18.2375 4.5625 13.2875 4.5625 8.1875 C2.2525 8.1875 -0.0575 8.1875 -2.4375 8.1875 C-3.0975 7.5275 -3.7575 6.8675 -4.4375 6.1875 C-3.71780303 0.28598485 -3.71780303 0.28598485 0 0 Z " fill="#40180C" transform="translate(127.4375,4.8125)"/>
<path d="M0 0 C-0.99 0.66 -1.98 1.32 -3 2 C9.54 2.33 22.08 2.66 35 3 C35.495 3.99 35.495 3.99 36 5 C34.93563721 4.98952637 33.87127441 4.97905273 32.7746582 4.96826172 C28.81440614 4.93197924 24.8541687 4.90906955 20.89379883 4.89013672 C19.18185961 4.88009792 17.46993745 4.86646405 15.75805664 4.84912109 C13.29308858 4.82477927 10.82834785 4.81349562 8.36328125 4.8046875 C7.60163162 4.79436493 6.83998199 4.78404236 6.05525208 4.77340698 C-0.23961232 4.77208694 -4.15688687 6.05375967 -9 10 C-9.75 8.375 -9.75 8.375 -10 6 C-5.6281407 -1.68844221 -5.6281407 -1.68844221 0 0 Z " fill="#1E0602" transform="translate(112,54)"/>
<path d="M0 0 C0.33 1.32 0.66 2.64 1 4 C2.32 4 3.64 4 5 4 C3.375 9.75 3.375 9.75 0 12 C-0.33 12.99 -0.66 13.98 -1 15 C4.28 15 9.56 15 15 15 C15 15.33 15 15.66 15 16 C9.39 16 3.78 16 -2 16 C-2.66 13.69 -3.32 11.38 -4 9 C-2.68 9 -1.36 9 0 9 C-1.65 8.67 -3.3 8.34 -5 8 C-4.7525 7.1028125 -4.7525 7.1028125 -4.5 6.1875 C-3.8885876 3.88655664 -3.8885876 3.88655664 -4 1 C-2.68 0.67 -1.36 0.34 0 0 Z " fill="#964226" transform="translate(100,142)"/>
<path d="M0 0 C0.99 0 1.98 0 3 0 C3.67057887 1.7902061 4.3363469 3.58221489 5 5.375 C5.556875 6.87160156 5.556875 6.87160156 6.125 8.3984375 C7 11 7 11 7 13 C6.01 13 5.02 13 4 13 C4 12.34 4 11.68 4 11 C1.36 11.66 -1.28 12.32 -4 13 C-3.71517632 11.58194169 -3.42181856 10.16559621 -3.125 8.75 C-2.96257812 7.96109375 -2.80015625 7.1721875 -2.6328125 6.359375 C-2.00849925 4.03168856 -1.15161458 2.10968048 0 0 Z " fill="#DFDFDF" transform="translate(127,162)"/>
<path d="M0 0 C2.64 0.33 5.28 0.66 8 1 C8 1.33 8 1.66 8 2 C6.02 2 4.04 2 2 2 C2 9.59 2 17.18 2 25 C9.92 25 17.84 25 26 25 C26 25.33 26 25.66 26 26 C21.85418113 26.02886751 17.70838784 26.04675327 13.5625 26.0625 C11.78649414 26.07506836 11.78649414 26.07506836 9.97460938 26.08789062 C8.84990234 26.09111328 7.72519531 26.09433594 6.56640625 26.09765625 C5.00321655 26.10551147 5.00321655 26.10551147 3.40844727 26.11352539 C1 26 1 26 0 25 C-0.08737645 23.14630389 -0.10698153 21.28932459 -0.09765625 19.43359375 C-0.09443359 18.30888672 -0.09121094 17.18417969 -0.08789062 16.02539062 C-0.07951172 14.84138672 -0.07113281 13.65738281 -0.0625 12.4375 C-0.05798828 11.24962891 -0.05347656 10.06175781 -0.04882812 8.83789062 C-0.03699675 5.89187774 -0.02051287 2.94596319 0 0 Z " fill="#A64B2C" transform="translate(88,156)"/>
<path d="M0 0 C4.12486838 -0.08676908 8.24950384 -0.14031295 12.375 -0.1875 C13.550625 -0.21263672 14.72625 -0.23777344 15.9375 -0.26367188 C17.61972656 -0.27817383 17.61972656 -0.27817383 19.3359375 -0.29296875 C20.37282715 -0.3086792 21.4097168 -0.32438965 22.47802734 -0.34057617 C23.31027832 -0.22818604 24.1425293 -0.1157959 25 0 C25.66 0.99 26.32 1.98 27 3 C27 2.01 27 1.02 27 0 C27.66 0 28.32 0 29 0 C29.04125 0.99 29.0825 1.98 29.125 3 C29.78526687 7.96723847 32.84293395 11.28296505 36 15 C35.67 15.66 35.34 16.32 35 17 C24 4.8258427 24 4.8258427 24 1 C16.08 1 8.16 1 0 1 C0 0.67 0 0.34 0 0 Z " fill="#C36747" transform="translate(90,180)"/>
<path d="M0 0 C3.83830076 3.56216401 6.83642843 7.6196654 9.9375 11.8125 C10.44990234 12.49892578 10.96230469 13.18535156 11.49023438 13.89257812 C14.71494107 18.22360097 17.87461767 22.59683705 21 27 C20.01 27 19.02 27 18 27 C16.43774414 25.42700195 16.43774414 25.42700195 14.78515625 23.23828125 C14.18123047 22.44873047 13.57730469 21.65917969 12.95507812 20.84570312 C12.33052734 20.00974609 11.70597656 19.17378906 11.0625 18.3125 C9.82435163 16.68349275 8.5860738 15.05458388 7.34765625 13.42578125 C6.76902832 12.65314941 6.19040039 11.88051758 5.59423828 11.08447266 C4.30618624 9.40033968 2.94297695 7.77385327 1.55859375 6.16796875 C0 4 0 4 0 0 Z " fill="#AF5B3C" transform="translate(159,95)"/>
<path d="M0 0 C0.99 0 1.98 0 3 0 C3.66 2.64 4.32 5.28 5 8 C5.99 5.36 6.98 2.72 8 0 C8.66 0 9.32 0 10 0 C9.52060632 4.71403788 9.03165952 8.66579301 7 13 C6.01 13 5.02 13 4 13 C1.97944157 8.60748167 0.59104765 4.84659077 0 0 Z " fill="#F2F2F2" transform="translate(136,162)"/>
<path d="M0 0 C2.64 0 5.28 0 8 0 C8 4.29 8 8.58 8 13 C5.36 13 2.72 13 0 13 C0 11.02 0 9.04 0 7 C0.33 8.32 0.66 9.64 1 11 C2.65 11 4.3 11 6 11 C5.814375 10.2575 5.62875 9.515 5.4375 8.75 C5.00796892 6.05009037 5.14877026 4.55368923 6 2 C4.68 2 3.36 2 2 2 C2 3.32 2 4.64 2 6 C1.34 6 0.68 6 0 6 C0 4.02 0 2.04 0 0 Z " fill="#F4F4F4" transform="translate(98,162)"/>
<path d="M0 0 C0.33 0 0.66 0 1 0 C1 1.98 1 3.96 1 6 C1.66 6 2.32 6 3 6 C3 4.68 3 3.36 3 2 C4.32 2 5.64 2 7 2 C7 4.97 7 7.94 7 11 C5.35 11 3.7 11 2 11 C1.67 11.66 1.34 12.32 1 13 C3.31 13 5.62 13 8 13 C8 13.33 8 13.66 8 14 C5.36 14 2.72 14 0 14 C0 9.38 0 4.76 0 0 Z " fill="#737373" transform="translate(97,162)"/>
<path d="M0 0 C4.07763771 2.86536704 6.02677065 5.43041625 8 10 C6.02579865 12.52259061 5.03254358 12.9929808 1.8125 13.6875 C0.4203125 13.8421875 0.4203125 13.8421875 -1 14 C-0.67 13.01 -0.34 12.02 0 11 C0.66 10.67 1.32 10.34 2 10 C2 8.68 2 7.36 2 6 C1.01 5.67 0.02 5.34 -1 5 C-0.67 3.35 -0.34 1.7 0 0 Z " fill="#92462B" transform="translate(154,96)"/>
<path d="M0 0 C0.33 0 0.66 0 1 0 C1 3.96 1 7.92 1 12 C0.67 12 0.34 12 0 12 C-0.33 10.35 -0.66 8.7 -1 7 C-4.48749314 9.78999451 -7.50157221 12.25235831 -10 16 C-10.66 15.67 -11.32 15.34 -12 15 C-10.18829771 12.68687105 -8.37567861 10.37447123 -6.5625 8.0625 C-6.04623047 7.40314453 -5.52996094 6.74378906 -4.99804688 6.06445312 C-4.50498047 5.43603516 -4.01191406 4.80761719 -3.50390625 4.16015625 C-3.04830322 3.57886963 -2.5927002 2.99758301 -2.12329102 2.39868164 C-1 1 -1 1 0 0 Z " fill="#240601" transform="translate(116,98)"/>
<path d="M0 0 C0.33 1.32 0.66 2.64 1 4 C2.98 4 4.96 4 7 4 C7.33 3.01 7.66 2.02 8 1 C7.979375 1.9075 7.95875 2.815 7.9375 3.75 C7.9889755 6.42672588 8.2215017 8.46988052 9 11 C8.01 11 7.02 11 6 11 C5.67 9.35 5.34 7.7 5 6 C3.68 6 2.36 6 1 6 C1 7.65 1 9.3 1 11 C0.67 11 0.34 11 0 11 C0 7.37 0 3.74 0 0 Z " fill="#F2F2F2" transform="translate(111,164)"/>
<path d="M0 0 C0 3 0 3 -2 6 C-1.65262237 9.38693192 -0.64599285 12.03721286 1 15 C1.99 15 2.98 15 4 15 C4.33 16.32 4.66 17.64 5 19 C4.34 19.33 3.68 19.66 3 20 C0.03 16.04 -2.94 12.08 -6 8 C-2 2 -2 2 0 0 Z " fill="#A04D30" transform="translate(108,121)"/>
<path d="M0 0 C4.54109672 4.26587874 8.24735246 9.03612328 12 14 C11.01 14.495 11.01 14.495 10 15 C10 15.66 10 16.32 10 17 C9.34 17 8.68 17 8 17 C6 14 6 14 5.125 11.1875 C3.8881684 7.68314381 2.08477581 5.05767119 0 2 C0 1.34 0 0.68 0 0 Z " fill="#A05135" transform="translate(93,129)"/>
<path d="M0 0 C0.33 1.32 0.66 2.64 1 4 C1.66 4 2.32 4 3 4 C3 4.66 3 5.32 3 6 C2.34 6 1.68 6 1 6 C0.67 6.99 0.34 7.98 0 9 C-1.65 8.67 -3.3 8.34 -5 8 C-4.7525 7.1028125 -4.7525 7.1028125 -4.5 6.1875 C-3.8885876 3.88655664 -3.8885876 3.88655664 -4 1 C-2.68 0.67 -1.36 0.34 0 0 Z " fill="#330C05" transform="translate(100,142)"/>
<path d="M0 0 C2.97 0.495 2.97 0.495 6 1 C6 2.98 6 4.96 6 7 C5.01 7.33 4.02 7.66 3 8 C2.34 8.66 1.68 9.32 1 10 C1 8.68 1 7.36 1 6 C-0.32 5.67 -1.64 5.34 -3 5 C-2.01 4.67 -1.02 4.34 0 4 C0 2.68 0 1.36 0 0 Z " fill="#270902" transform="translate(151,100)"/>
<path d="M0 0 C0.66 0 1.32 0 2 0 C2.66 0.66 3.32 1.32 4 2 C4.99 2 5.98 2 7 2 C7 5 7 5 6 7 C7.32 6.67 8.64 6.34 10 6 C10.99 7.485 10.99 7.485 12 9 C10.68 9 9.36 9 8 9 C7.67 9.66 7.34 10.32 7 11 C5.82750647 9.54634731 4.66216184 8.08692581 3.5 6.625 C2.52546875 5.40683594 2.52546875 5.40683594 1.53125 4.1640625 C0 2 0 2 0 0 Z " fill="#A95436" transform="translate(89,143)"/>
<path d="M0 0 C0.78375 0.04125 1.5675 0.0825 2.375 0.125 C2.705 0.785 3.035 1.445 3.375 2.125 C2.385 2.125 1.395 2.125 0.375 2.125 C0.375 3.445 0.375 4.765 0.375 6.125 C1.035 6.455 1.695 6.785 2.375 7.125 C0.395 7.125 -1.585 7.125 -3.625 7.125 C-4.25 4.75 -4.25 4.75 -4.625 2.125 C-2.625 0.125 -2.625 0.125 0 0 Z " fill="#9E5237" transform="translate(127.625,4.875)"/>
<path d="M0 0 C9.57 0 19.14 0 29 0 C28.67 1.65 28.34 3.3 28 5 C27.01 4.34 26.02 3.68 25 3 C25 2.34 25 1.68 25 1 C16.75 1 8.5 1 0 1 C0 0.67 0 0.34 0 0 Z " fill="#471C0D" transform="translate(90,179)"/>
<path d="M0 0 C0.33 0.66 0.66 1.32 1 2 C3.8159849 2.46898963 3.8159849 2.46898963 7.0625 2.625 C8.71958984 2.73714844 8.71958984 2.73714844 10.41015625 2.8515625 C11.26480469 2.90054688 12.11945313 2.94953125 13 3 C13 3.66 13 4.32 13 5 C7.72 5 2.44 5 -3 5 C-1 1 -1 1 0 0 Z " fill="#9C4A2E" transform="translate(144,153)"/>
<path d="M0 0 C1 2 2 4 3 6 C2.01 6 1.02 6 0 6 C-0.33 7.32 -0.66 8.64 -1 10 C-1.33 9.34 -1.66 8.68 -2 8 C-2.99 7.34 -3.98 6.68 -5 6 C-5.1875 3.375 -5.1875 3.375 -5 1 C-3.35 0.67 -1.7 0.34 0 0 Z " fill="#240702" transform="translate(104,100)"/>
<path d="M0 0 C0.33 0 0.66 0 1 0 C0.99097656 0.556875 0.98195312 1.11375 0.97265625 1.6875 C1.21326288 7.88050533 2.98920838 10.89092959 7.30859375 15.2734375 C9 17 9 17 11 20 C10.67 20.99 10.34 21.98 10 23 C8.89539041 21.58367866 7.79133212 20.16692736 6.6875 18.75 C5.76517578 17.56664062 5.76517578 17.56664062 4.82421875 16.359375 C4.22222656 15.58078125 3.62023437 14.8021875 3 14 C2.14921875 13.02546875 2.14921875 13.02546875 1.28125 12.03125 C-0.35189906 9.44211124 -0.3071998 7.78239482 -0.1875 4.75 C-0.16042969 3.85796875 -0.13335937 2.9659375 -0.10546875 2.046875 C-0.07066406 1.37140625 -0.03585938 0.6959375 0 0 Z " fill="#430B01" transform="translate(139,60)"/>
<path d="M0 0 C1.32 0 2.64 0 4 0 C4 2.97 4 5.94 4 9 C2.68 9 1.36 9 0 9 C0 6.03 0 3.06 0 0 Z " fill="#0C0C0C" transform="translate(152,164)"/>
<path d="M0 0 C0.33 0.66 0.66 1.32 1 2 C1.66 2 2.32 2 3 2 C3.33 1.34 3.66 0.68 4 0 C4.66 2.31 5.32 4.62 6 7 C3.36 7.66 0.72 8.32 -2 9 C-1.34 6.03 -0.68 3.06 0 0 Z " fill="#ABABAB" transform="translate(125,166)"/>
<path d="M0 0 C0.33 0.66 0.66 1.32 1 2 C-0.89515353 5.74623373 -3.37268608 8.72081913 -6.1875 11.8125 C-6.90292969 12.60269531 -7.61835937 13.39289063 -8.35546875 14.20703125 C-8.89816406 14.79871094 -9.44085938 15.39039062 -10 16 C-10.66 15.67 -11.32 15.34 -12 15 C-8.04 10.05 -4.08 5.1 0 0 Z " fill="#874328" transform="translate(115,78)"/>
<path d="M0 0 C2.97 0.495 2.97 0.495 6 1 C5.814375 1.61875 5.62875 2.2375 5.4375 2.875 C4.76313824 5.04160178 4.76313824 5.04160178 6 7 C4.35 7 2.7 7 1 7 C0.67 7.66 0.34 8.32 0 9 C0 7.68 0 6.36 0 5 C-0.66 4.67 -1.32 4.34 -2 4 C-1.34 2.68 -0.68 1.36 0 0 Z " fill="#2D0A03" transform="translate(153,145)"/>
<path d="M0 0 C4.21814817 3.9700218 7.61227103 8.30840284 11 13 C9.68 13.33 8.36 13.66 7 14 C6.773125 13.29875 6.54625 12.5975 6.3125 11.875 C5.15389556 9.33710455 4.17841097 7.91852518 2.375 5.875 C0 3 0 3 0 0 Z " fill="#390902" transform="translate(82,142)"/>
<path d="M0 0 C2.81337656 2.72623658 5.33582357 5.540219 7.75 8.625 C8.36359375 9.40101563 8.9771875 10.17703125 9.609375 10.9765625 C11 13 11 13 11 15 C7.11298484 13.70432828 6.18787565 11.92196949 3.8125 8.625 C2.73935547 7.15933594 2.73935547 7.15933594 1.64453125 5.6640625 C0 3 0 3 0 0 Z " fill="#370702" transform="translate(114,183)"/>
<path d="M0 0 C2 2 2 2 2.375 4.375 C1.89262388 7.75163282 0.55541504 8.84386856 -2 11 C-2 9.68 -2 8.36 -2 7 C-2.99 7.33 -3.98 7.66 -5 8 C-5 7.34 -5 6.68 -5 6 C-3.68 5.67 -2.36 5.34 -1 5 C-1 3.68 -1 2.36 -1 1 C-0.67 0.67 -0.34 0.34 0 0 Z " fill="#B25536" transform="translate(159,146)"/>
<path d="M0 0 C2 1.125 2 1.125 4 3 C4.625 5.75 4.625 5.75 4 9 C2.22071496 11.56093626 0.19589712 13.79103206 -2 16 C-2.66 15.67 -3.32 15.34 -4 15 C-3.54367188 14.50371094 -3.08734375 14.00742188 -2.6171875 13.49609375 C0.85097731 9.6946155 0.85097731 9.6946155 1.953125 4.91015625 C1.3542588 2.77594135 1.3542588 2.77594135 0 0 Z " fill="#BC6244" transform="translate(179,122)"/>
<path d="M0 0 C0.66 0 1.32 0 2 0 C2 3.96 2 7.92 2 12 C2.99 12 3.98 12 5 12 C3.25 15.875 3.25 15.875 1 17 C0.67 11.39 0.34 5.78 0 0 Z " fill="#1A0201" transform="translate(128,179)"/>
<path d="M0 0 C2 0.66666667 4 1.33333333 6 2 C6.33 3.98 6.66 5.96 7 8 C6.01 8.495 6.01 8.495 5 9 C4.16094435 7.87926138 3.32892169 6.75325453 2.5 5.625 C2.0359375 4.99851562 1.571875 4.37203125 1.09375 3.7265625 C0 2 0 2 0 0 Z " fill="#93482C" transform="translate(146,104)"/>
<path d="M0 0 C0.66 0 1.32 0 2 0 C1.25 7.75 1.25 7.75 -1 10 C-2.15837626 5.94568308 -1.83691257 3.78187881 0 0 Z " fill="#CECECE" transform="translate(144,162)"/>
<path d="M0 0 C0.33 0.99 0.66 1.98 1 3 C-0.43359375 5.26171875 -0.43359375 5.26171875 -2.4375 7.6875 C-3.09621094 8.49574219 -3.75492188 9.30398437 -4.43359375 10.13671875 C-4.95050781 10.75160156 -5.46742188 11.36648437 -6 12 C-6.66 11.67 -7.32 11.34 -8 11 C-5.36 7.37 -2.72 3.74 0 0 Z " fill="#370902" transform="translate(139,186)"/>
<path d="M0 0 C0.33 0 0.66 0 1 0 C1 1.98 1 3.96 1 6 C-0.98 6.99 -0.98 6.99 -3 8 C-3.66 7.34 -4.32 6.68 -5 6 C-3.35830472 3.97945196 -1.69088222 1.97956942 0 0 Z " fill="#8B452D" transform="translate(152,142)"/>
<path d="M0 0 C0.99 0 1.98 0 3 0 C3 3.3 3 6.6 3 10 C2.34 10 1.68 10 1 10 C0.67 6.7 0.34 3.4 0 0 Z " fill="#441B0F" transform="translate(126,59)"/>
<path d="M0 0 C1.32 0.66 2.64 1.32 4 2 C4 2.33 4 2.66 4 3 C-1.28 3 -6.56 3 -12 3 C-12 2.67 -12 2.34 -12 2 C-8.04 2 -4.08 2 0 2 C0 1.34 0 0.68 0 0 Z " fill="#BE5F3D" transform="translate(111,154)"/>
<path d="M0 0 C1.0013988 3.00419641 1.51421457 5.87709365 2 9 C1.01 9 0.02 9 -1 9 C-2 8 -2 8 -2.1875 5.0625 C-2 2 -2 2 0 0 Z " fill="#AE5739" transform="translate(75,123)"/>
<path d="M0 0 C0.33 0 0.66 0 1 0 C1.33 4.29 1.66 8.58 2 13 C1.01 13.495 1.01 13.495 0 14 C-0.66 12.02 -1.32 10.04 -2 8 C-1.34 8 -0.68 8 0 8 C0 5.36 0 2.72 0 0 Z " fill="#96492D" transform="translate(135,37)"/>
<path d="M0 0 C0.99 0 1.98 0 3 0 C3.625 2.8125 3.625 2.8125 4 6 C3.01 7.485 3.01 7.485 2 9 C1.34 6.03 0.68 3.06 0 0 Z " fill="#C6C6C6" transform="translate(136,162)"/>
<path d="M0 0 C-1.29299694 2.88437779 -2.65941363 4.87219421 -5 7 C-5 5.02 -5 3.04 -5 1 C-3 0 -3 0 0 0 Z " fill="#A74E2E" transform="translate(143,143)"/>
<path d="M0 0 C0 3.86695678 -1.41909971 6.5088452 -3 10 C-3.99 9.01 -4.98 8.02 -6 7 C-4.02 4.69 -2.04 2.38 0 0 Z " fill="#A55337" transform="translate(108,121)"/>
<path d="M0 0 C0.99 0 1.98 0 3 0 C3 1.32 3 2.64 3 4 C2.34 4 1.68 4 1 4 C1 4.66 1 5.32 1 6 C0.34 6 -0.32 6 -1 6 C-0.67 4.02 -0.34 2.04 0 0 Z " fill="#EBEBEB" transform="translate(127,162)"/>
<path d="M0 0 C4.875 3.625 4.875 3.625 6 7 C4.02 7 2.04 7 0 7 C0.66 6.34 1.32 5.68 2 5 C1.34 3.35 0.68 1.7 0 0 Z " fill="#BD6545" transform="translate(90,150)"/>
<path d="M0 0 C0.66 0 1.32 0 2 0 C0.64978174 4.41889613 -1.26115668 6.34345343 -5 9 C-3.7580393 5.56072421 -2.44259716 2.74792181 0 0 Z " fill="#BA6140" transform="translate(108,80)"/>
<path d="M0 0 C0.66 0 1.32 0 2 0 C1.45773019 3.79588866 -0.20127563 5.47211993 -3 8 C-3.33 7.34 -3.66 6.68 -4 6 C-2.7260411 3.96166576 -1.38938077 1.96147874 0 0 Z " fill="#3D0D03" transform="translate(115,74)"/>
<path d="M0 0 C1.32 0.66 2.64 1.32 4 2 C-0.625 5 -0.625 5 -4 5 C-2.68 3.35 -1.36 1.7 0 0 Z " fill="#A4543A" transform="translate(108,59)"/>
<path d="M0 0 C1.98 0.99 1.98 0.99 4 2 C3.67 5.3 3.34 8.6 3 12 C2.67 12 2.34 12 2 12 C1.93941406 11.38511719 1.87882812 10.77023438 1.81640625 10.13671875 C1.73261719 9.32847656 1.64882812 8.52023438 1.5625 7.6875 C1.48128906 6.88699219 1.40007812 6.08648437 1.31640625 5.26171875 C1.04734307 2.83912821 1.04734307 2.83912821 0 0 Z " fill="#A74D2E" transform="translate(118,12)"/>
<path d="M0 0 C1.32 0 2.64 0 4 0 C3.67 1.65 3.34 3.3 3 5 C2.01 4.67 1.02 4.34 0 4 C0 2.68 0 1.36 0 0 Z " fill="#79311A" transform="translate(128,7)"/>
</svg>
