<?xml version="1.0" encoding="UTF-8"?>
<!DOCTYPE svg PUBLIC "-//W3C//DTD SVG 1.1//EN" "http://www.w3.org/Graphics/SVG/1.1/DTD/svg11.dtd">
<svg xmlns="http://www.w3.org/2000/svg" version="1.1" width="256px" height="198px" style="shape-rendering:geometricPrecision; text-rendering:geometricPrecision; image-rendering:optimizeQuality; fill-rule:evenodd; clip-rule:evenodd" xmlns:xlink="http://www.w3.org/1999/xlink">
<g><path style="opacity:0.791" fill="#0c0c0a" d="M 125.5,-0.5 C 127.167,-0.5 128.833,-0.5 130.5,-0.5C 104.416,32.652 78.0822,65.652 51.5,98.5C 63.8811,114.631 76.7144,130.298 90,145.5C 90.5,145.333 91,145.167 91.5,145C 79.3568,129.356 67.0235,113.856 54.5,98.5C 79.7877,66.5436 105.454,34.8769 131.5,3.5C 157.515,34.8524 183.182,66.5191 208.5,98.5C 196.046,113.909 183.713,129.409 171.5,145C 173.367,145.711 174.867,145.211 176,143.5C 187.833,128.5 199.667,113.5 211.5,98.5C 185.399,65.2872 159.065,32.2872 132.5,-0.5C 134.167,-0.5 135.833,-0.5 137.5,-0.5C 161.121,28.9592 184.954,58.2926 209,87.5C 211.686,90.8748 213.853,94.5415 215.5,98.5C 214.946,100.61 214.112,102.61 213,104.5C 201.333,118.833 189.667,133.167 178,147.5C 177.942,156.268 177.275,164.935 176,173.5C 175.25,174.126 174.416,174.626 173.5,175C 167.167,175.333 160.833,175.667 154.5,176C 148.704,183.106 143.038,190.273 137.5,197.5C 135.833,197.5 134.167,197.5 132.5,197.5C 139.158,188.863 145.825,180.197 152.5,171.5C 152.167,171.167 151.833,170.833 151.5,170.5C 144.833,178.167 138.167,185.833 131.5,193.5C 125.058,186.133 118.725,178.633 112.5,171C 111.668,170.312 111.002,170.479 110.5,171.5C 117.598,179.919 124.264,188.586 130.5,197.5C 128.833,197.5 127.167,197.5 125.5,197.5C 120.047,190.208 114.381,183.042 108.5,176C 101.833,175.667 95.1667,175.333 88.5,175C 87.5838,174.626 86.7504,174.126 86,173.5C 85,163.833 84,154.167 83,144.5C 72.6667,131.833 62.3333,119.167 52,106.5C 49.861,104.194 48.361,101.527 47.5,98.5C 48.361,95.4727 49.861,92.806 52,90.5C 76.988,60.5022 101.488,30.1689 125.5,-0.5 Z"/></g>
<g><path style="opacity:1" fill="#24282b" d="M 167.5,145.5 C 162.39,145.688 157.057,145.688 151.5,145.5C 164.396,130.104 176.73,114.27 188.5,98C 169.703,74.3664 150.703,50.8664 131.5,27.5C 112.12,50.8778 93.1203,74.5444 74.5,98.5C 87.083,114.015 99.4163,129.682 111.5,145.5C 107.167,145.5 102.833,145.5 98.5,145.5C 85.8568,129.852 73.1901,114.186 60.5,98.5C 84.1667,69.1667 107.833,39.8333 131.5,10.5C 155.167,39.8333 178.833,69.1667 202.5,98.5C 190.046,113.909 177.713,129.409 165.5,145C 166.094,145.464 166.761,145.631 167.5,145.5 Z"/></g>
<g><path style="opacity:0.918" fill="#4e4b4b" d="M 130.5,-0.5 C 131.167,-0.5 131.833,-0.5 132.5,-0.5C 159.065,32.2872 185.399,65.2872 211.5,98.5C 199.667,113.5 187.833,128.5 176,143.5C 174.867,145.211 173.367,145.711 171.5,145C 183.713,129.409 196.046,113.909 208.5,98.5C 183.182,66.5191 157.515,34.8524 131.5,3.5C 105.454,34.8769 79.7877,66.5436 54.5,98.5C 67.0235,113.856 79.3568,129.356 91.5,145C 91,145.167 90.5,145.333 90,145.5C 76.7144,130.298 63.8811,114.631 51.5,98.5C 78.0822,65.652 104.416,32.652 130.5,-0.5 Z"/></g>
<g><path style="opacity:1" fill="#504d4d" d="M 167.5,145.5 C 166.761,145.631 166.094,145.464 165.5,145C 177.713,129.409 190.046,113.909 202.5,98.5C 178.833,69.1667 155.167,39.8333 131.5,10.5C 107.833,39.8333 84.1667,69.1667 60.5,98.5C 73.1901,114.186 85.8568,129.852 98.5,145.5C 96.6096,145.703 95.1096,145.037 94,143.5C 82.0408,128.406 70.2075,113.24 58.5,98C 82.6299,67.6998 106.963,37.5331 131.5,7.5C 156.167,37.8333 180.833,68.1667 205.5,98.5C 192.81,114.186 180.143,129.852 167.5,145.5 Z"/></g>
<g><path style="opacity:1" fill="#534f4e" d="M 151.5,145.5 C 150.5,145.5 149.5,145.5 148.5,145.5C 161.167,129.833 173.833,114.167 186.5,98.5C 168.538,75.8703 150.205,53.537 131.5,31.5C 112.774,53.3063 94.7743,75.6396 77.5,98.5C 89.9367,113.848 102.27,129.348 114.5,145C 113.906,145.464 113.239,145.631 112.5,145.5C 112.167,145.5 111.833,145.5 111.5,145.5C 99.4163,129.682 87.083,114.015 74.5,98.5C 93.1203,74.5444 112.12,50.8778 131.5,27.5C 150.703,50.8664 169.703,74.3664 188.5,98C 176.73,114.27 164.396,130.104 151.5,145.5 Z"/></g>
<g><path style="opacity:1" fill="#2f2d2a" d="M 131.5,96.5 C 126.723,99.2218 121.723,99.8884 116.5,98.5C 123.627,99.5007 124.627,98.1674 119.5,94.5C 118.265,95.3398 117.265,96.3398 116.5,97.5C 116.565,97.0618 116.399,96.7284 116,96.5C 114.951,98.1066 113.451,98.7733 111.5,98.5C 111.768,96.901 111.434,95.5676 110.5,94.5C 109.648,89.9496 109.981,85.4496 111.5,81C 110.692,80.6924 110.025,80.1924 109.5,79.5C 111.151,75.3041 112.318,70.9708 113,66.5C 114.715,63.6026 117.215,62.2693 120.5,62.5C 119.753,55.0605 122.587,53.0605 129,56.5C 129.687,58.5675 129.52,60.5675 128.5,62.5C 130.007,63.7388 131.174,63.4054 132,61.5C 134.383,62.7657 137.05,63.4324 140,63.5C 142.95,63.4324 145.617,62.7657 148,61.5C 148.374,62.4162 148.874,63.2496 149.5,64C 151.5,64.3333 153.5,64.6667 155.5,65C 150.489,65.5847 145.489,66.2514 140.5,67C 139.751,70.075 138.751,73.075 137.5,76C 134.662,78.1201 131.996,77.9534 129.5,75.5C 129.167,75.8333 128.833,76.1667 128.5,76.5C 130.28,80.5734 129.613,84.0734 126.5,87C 128.822,89.8096 130.488,92.9763 131.5,96.5 Z"/></g>
<g><path style="opacity:1" fill="#e09218" d="M 186.5,98.5 C 168.497,98.6666 150.497,98.4999 132.5,98C 131.944,97.6174 131.611,97.1174 131.5,96.5C 130.488,92.9763 128.822,89.8096 126.5,87C 129.613,84.0734 130.28,80.5734 128.5,76.5C 128.833,76.1667 129.167,75.8333 129.5,75.5C 131.996,77.9534 134.662,78.1201 137.5,76C 138.751,73.075 139.751,70.075 140.5,67C 145.489,66.2514 150.489,65.5847 155.5,65C 153.5,64.6667 151.5,64.3333 149.5,64C 148.874,63.2496 148.374,62.4162 148,61.5C 145.617,62.7657 142.95,63.4324 140,63.5C 137.05,63.4324 134.383,62.7657 132,61.5C 131.174,63.4054 130.007,63.7388 128.5,62.5C 129.52,60.5675 129.687,58.5675 129,56.5C 122.587,53.0605 119.753,55.0605 120.5,62.5C 117.215,62.2693 114.715,63.6026 113,66.5C 112.318,70.9708 111.151,75.3041 109.5,79.5C 110.025,80.1924 110.692,80.6924 111.5,81C 109.981,85.4496 109.648,89.9496 110.5,94.5C 109.766,95.7079 109.433,97.0413 109.5,98.5C 98.8333,98.5 88.1667,98.5 77.5,98.5C 94.7743,75.6396 112.774,53.3063 131.5,31.5C 150.205,53.537 168.538,75.8703 186.5,98.5 Z"/></g>
<g><path style="opacity:1" fill="#aa741e" d="M 134.5,67.5 C 136.656,67.8718 136.656,68.8718 134.5,70.5C 133.438,69.5754 133.438,68.5754 134.5,67.5 Z"/></g>
<g><path style="opacity:1" fill="#d38b1a" d="M 116.5,98.5 C 116.5,98.1667 116.5,97.8333 116.5,97.5C 117.265,96.3398 118.265,95.3398 119.5,94.5C 124.627,98.1674 123.627,99.5007 116.5,98.5 Z"/></g>
<g><path style="opacity:1" fill="#24282b" d="M 110.5,94.5 C 111.434,95.5676 111.768,96.901 111.5,98.5C 113.451,98.7733 114.951,98.1066 116,96.5C 116.399,96.7284 116.565,97.0618 116.5,97.5C 116.5,97.8333 116.5,98.1667 116.5,98.5C 121.723,99.8884 126.723,99.2218 131.5,96.5C 131.611,97.1174 131.944,97.6174 132.5,98C 150.497,98.4999 168.497,98.6666 186.5,98.5C 173.833,114.167 161.167,129.833 148.5,145.5C 136.277,145.574 124.277,145.574 112.5,145.5C 113.239,145.631 113.906,145.464 114.5,145C 102.27,129.348 89.9367,113.848 77.5,98.5C 88.1667,98.5 98.8333,98.5 109.5,98.5C 109.433,97.0413 109.766,95.7079 110.5,94.5 Z"/></g>
<g><path style="opacity:1" fill="#dedede" d="M 136.5,117.5 C 140.167,118.167 143.833,118.833 147.5,119.5C 143.881,121.291 141.214,123.958 139.5,127.5C 140.363,130.722 141.363,133.889 142.5,137C 138.768,135.534 135.268,133.367 132,130.5C 129,132.833 126,135.167 123,137.5C 122.634,133.912 123.134,130.412 124.5,127C 122.538,123.705 119.872,121.038 116.5,119C 120.418,117.844 124.418,117.344 128.5,117.5C 129.508,113.806 130.675,110.139 132,106.5C 133.428,110.307 134.928,113.974 136.5,117.5 Z"/></g>
<g><path style="opacity:1" fill="#6e7072" d="M 136.5,117.5 C 140.555,117.176 144.555,117.509 148.5,118.5C 148.376,119.107 148.043,119.44 147.5,119.5C 143.833,118.833 140.167,118.167 136.5,117.5 Z"/></g>
<g><path style="opacity:1" fill="#936010" d="M 91.5,148.5 C 91.5,154.833 91.5,161.167 91.5,167.5C 117.833,167.5 144.167,167.5 170.5,167.5C 170.5,161.167 170.5,154.833 170.5,148.5C 171.491,154.979 171.824,161.646 171.5,168.5C 144.5,168.5 117.5,168.5 90.5,168.5C 90.176,161.646 90.5093,154.979 91.5,148.5 Z"/></g>
<g><path style="opacity:1" fill="#dd9017" d="M 91.5,148.5 C 117.833,148.5 144.167,148.5 170.5,148.5C 170.5,154.833 170.5,161.167 170.5,167.5C 144.167,167.5 117.833,167.5 91.5,167.5C 91.5,161.167 91.5,154.833 91.5,148.5 Z"/></g>
<g><path style="opacity:1" fill="#2e1e07" d="M 151.5,152.5 C 161.491,150.654 164.824,154.488 161.5,164C 150.131,166.84 146.797,163.007 151.5,152.5 Z"/></g>
<g><path style="opacity:1" fill="#9b6410" d="M 114.5,159.5 C 117.5,159.5 120.5,159.5 123.5,159.5C 123.5,160.5 123.5,161.5 123.5,162.5C 119.958,162.187 116.625,162.521 113.5,163.5C 112.957,163.44 112.624,163.107 112.5,162.5C 115.785,161.676 119.118,161.176 122.5,161C 119.635,160.817 116.969,160.317 114.5,159.5 Z"/></g>
<g><path style="opacity:1" fill="#744b0c" d="M 101.5,155.5 C 101.5,157.5 101.5,159.5 101.5,161.5C 104.713,161.19 107.713,161.523 110.5,162.5C 107.167,162.5 103.833,162.5 100.5,162.5C 100.198,159.941 100.532,157.607 101.5,155.5 Z"/></g>
<g><path style="opacity:1" fill="#1e1304" d="M 113.5,163.5 C 116.625,162.521 119.958,162.187 123.5,162.5C 123.5,161.5 123.5,160.5 123.5,159.5C 120.5,159.5 117.5,159.5 114.5,159.5C 112.353,158.068 112.02,156.235 113.5,154C 117.691,153.078 121.691,153.412 125.5,155C 113.154,155.819 112.821,156.819 124.5,158C 125.576,159.726 125.743,161.559 125,163.5C 121.066,164.821 117.233,164.821 113.5,163.5 Z"/></g>
<g><path style="opacity:1" fill="#573809" d="M 147.5,158.5 C 144.941,158.198 142.607,158.532 140.5,159.5C 139.957,159.44 139.624,159.107 139.5,158.5C 142.309,157.2 144.976,157.2 147.5,158.5 Z"/></g>
<g><path style="opacity:1" fill="#e29417" d="M 152.5,155.5 C 154.833,155.5 157.167,155.5 159.5,155.5C 159.5,157.833 159.5,160.167 159.5,162.5C 159.5,160.167 159.5,157.833 159.5,155.5C 157.167,155.5 154.833,155.5 152.5,155.5 Z"/></g>
<g><path style="opacity:1" fill="#261906" d="M 146.5,153.5 C 143.375,154.479 140.042,154.813 136.5,154.5C 136.194,157.385 136.527,160.052 137.5,162.5C 140.167,162.5 142.833,162.5 145.5,162.5C 145.5,161.5 145.5,160.5 145.5,159.5C 143.833,159.5 142.167,159.5 140.5,159.5C 142.607,158.532 144.941,158.198 147.5,158.5C 147.739,160.467 147.406,162.301 146.5,164C 142.577,164.793 138.744,164.626 135,163.5C 132.846,153.15 136.68,149.817 146.5,153.5 Z"/></g>
<g><path style="opacity:1" fill="#5a3a0a" d="M 152.5,155.5 C 154.948,154.527 157.615,154.194 160.5,154.5C 160.806,157.385 160.473,160.052 159.5,162.5C 159.5,160.167 159.5,157.833 159.5,155.5C 157.167,155.5 154.833,155.5 152.5,155.5 Z"/></g>
<g><path style="opacity:1" fill="#4e3308" d="M 146.5,153.5 C 147.043,153.56 147.376,153.893 147.5,154.5C 144.232,155.487 140.898,155.82 137.5,155.5C 137.5,157.833 137.5,160.167 137.5,162.5C 136.527,160.052 136.194,157.385 136.5,154.5C 140.042,154.813 143.375,154.479 146.5,153.5 Z"/></g>
<g><path style="opacity:1" fill="#180e02" d="M 101.5,155.5 C 100.532,157.607 100.198,159.941 100.5,162.5C 103.833,162.5 107.167,162.5 110.5,162.5C 110.389,163.117 110.056,163.617 109.5,164C 99.3512,167.185 96.0179,163.852 99.5,154C 103.362,153.087 107.028,153.42 110.5,155C 107.518,155.498 104.518,155.665 101.5,155.5 Z"/></g>
<g><path style="opacity:0.996" fill="#4f4c4c" d="M 132.5,197.5 C 131.833,197.5 131.167,197.5 130.5,197.5C 124.264,188.586 117.598,179.919 110.5,171.5C 111.002,170.479 111.668,170.312 112.5,171C 118.725,178.633 125.058,186.133 131.5,193.5C 138.167,185.833 144.833,178.167 151.5,170.5C 151.833,170.833 152.167,171.167 152.5,171.5C 145.825,180.197 139.158,188.863 132.5,197.5 Z"/></g>
<g><path style="opacity:1" fill="#504d4d" d="M 117.5,171.5 C 119.716,172.203 121.549,173.536 123,175.5C 125.833,179.167 128.667,182.833 131.5,186.5C 135.607,181.273 139.94,176.273 144.5,171.5C 145.107,171.624 145.44,171.957 145.5,172.5C 140.857,178.147 136.19,183.814 131.5,189.5C 126.427,183.767 121.761,177.767 117.5,171.5 Z"/></g>
<g><path style="opacity:1" fill="#23272a" d="M 145.5,172.5 C 145.44,171.957 145.107,171.624 144.5,171.5C 139.94,176.273 135.607,181.273 131.5,186.5C 128.667,182.833 125.833,179.167 123,175.5C 121.549,173.536 119.716,172.203 117.5,171.5C 121.415,170.806 126.082,170.473 131.5,170.5C 136.5,170.833 141.5,171.167 146.5,171.5C 146.376,172.107 146.043,172.44 145.5,172.5 Z"/></g>
</svg>
