<?xml version="1.0" encoding="UTF-8"?>
<!DOCTYPE svg PUBLIC "-//W3C//DTD SVG 1.1//EN" "http://www.w3.org/Graphics/SVG/1.1/DTD/svg11.dtd">
<svg xmlns="http://www.w3.org/2000/svg" version="1.1" width="96px" height="96px" style="shape-rendering:geometricPrecision; text-rendering:geometricPrecision; image-rendering:optimizeQuality; fill-rule:evenodd; clip-rule:evenodd" xmlns:xlink="http://www.w3.org/1999/xlink">
<g><path style="opacity:0.999" fill="#ccd6da" d="M 11.5,11.5 C 35.5,11.5 59.5,11.5 83.5,11.5C 83.5,35.5 83.5,59.5 83.5,83.5C 59.5,83.5 35.5,83.5 11.5,83.5C 11.5,59.5 11.5,35.5 11.5,11.5 Z"/></g>
<g><path style="opacity:1" fill="#263237" d="M 15.5,25.5 C 36.8333,25.5 58.1667,25.5 79.5,25.5C 79.5,43.5 79.5,61.5 79.5,79.5C 58.1667,79.5 36.8333,79.5 15.5,79.5C 15.5,61.5 15.5,43.5 15.5,25.5 Z"/></g>
<g><path style="opacity:1" fill="#6eeb0e" d="M 49.5,37.5 C 50.8734,37.3433 52.2068,37.51 53.5,38C 50.7345,46.7971 48.0678,55.6305 45.5,64.5C 44.3112,65.4287 42.9778,65.762 41.5,65.5C 43.8591,56.0614 46.5257,46.7281 49.5,37.5 Z"/></g>
<g><path style="opacity:1" fill="#70f10a" d="M 36.5,43.5 C 37.6129,44.9464 37.7796,46.6131 37,48.5C 35.0266,49.6399 33.1933,50.9733 31.5,52.5C 33.4219,53.711 35.2552,55.0443 37,56.5C 37.6667,58.1667 37.6667,59.8333 37,61.5C 33.5838,59.208 30.0838,57.0414 26.5,55C 25.1667,53 25.1667,51 26.5,49C 30.0561,47.3924 33.3894,45.5591 36.5,43.5 Z"/></g>
<g><path style="opacity:1" fill="#70ef0b" d="M 57.5,43.5 C 62.1261,45.6289 66.1261,48.4623 69.5,52C 69.5607,53.7106 68.8941,55.044 67.5,56C 64.3333,57.8333 61.1667,59.6667 58,61.5C 57.3333,59.8333 57.3333,58.1667 58,56.5C 59.7448,55.0443 61.5781,53.711 63.5,52.5C 59.0558,51.0669 57.0558,48.0669 57.5,43.5 Z"/></g>
</svg>
