<?xml version="1.0" encoding="UTF-8"?>
<!DOCTYPE svg PUBLIC "-//W3C//DTD SVG 1.1//EN" "http://www.w3.org/Graphics/SVG/1.1/DTD/svg11.dtd">
<svg xmlns="http://www.w3.org/2000/svg" version="1.1" width="96px" height="96px" style="shape-rendering:geometricPrecision; text-rendering:geometricPrecision; image-rendering:optimizeQuality; fill-rule:evenodd; clip-rule:evenodd" xmlns:xlink="http://www.w3.org/1999/xlink">
<g><path style="opacity:0.984" fill="#feb64d" d="M 38.5,7.5 C 45.9059,7.15199 53.2392,7.65199 60.5,9C 72.83,14.3575 79.33,23.8575 80,37.5C 83.3029,41.7745 85.8029,46.4412 87.5,51.5C 86.4583,55.382 83.7916,57.382 79.5,57.5C 79.6314,63.2213 79.1314,68.888 78,74.5C 76.8333,76.3333 75.3333,77.8333 73.5,79C 69.577,79.7927 65.7436,79.626 62,78.5C 61.502,81.4816 61.3354,84.4816 61.5,87.5C 49.5,87.5 37.5,87.5 25.5,87.5C 25.529,81.7898 25.029,76.1231 24,70.5C 20.3938,63.6214 17.0605,56.6214 14,49.5C 10.6634,28.4763 18.8301,14.4763 38.5,7.5 Z"/></g>
<g><path style="opacity:1" fill="#1e88e4" d="M 46.5,24.5 C 51.5734,28.0656 56.2401,32.2323 60.5,37C 57.5184,37.498 54.5184,37.6646 51.5,37.5C 51.5,45.5 51.5,53.5 51.5,61.5C 48.8333,61.5 46.1667,61.5 43.5,61.5C 43.5,53.5 43.5,45.5 43.5,37.5C 40.4816,37.6646 37.4816,37.498 34.5,37C 38.7036,32.9644 42.7036,28.7978 46.5,24.5 Z"/></g>
</svg>
