<?xml version="1.0" encoding="UTF-8"?>
<!DOCTYPE svg PUBLIC "-//W3C//DTD SVG 1.1//EN" "http://www.w3.org/Graphics/SVG/1.1/DTD/svg11.dtd">
<svg xmlns="http://www.w3.org/2000/svg" version="1.1" width="96px" height="96px" style="shape-rendering:geometricPrecision; text-rendering:geometricPrecision; image-rendering:optimizeQuality; fill-rule:evenodd; clip-rule:evenodd" xmlns:xlink="http://www.w3.org/1999/xlink">
<g><path style="opacity:0.959" fill="#434242" d="M 67.5,33.5 C 66.5423,34.9616 65.3756,36.2949 64,37.5C 63.6667,33.8333 63.3333,30.1667 63,26.5C 60.6178,23.7807 57.9512,21.4474 55,19.5C 47.5,22 40,24.5 32.5,27C 31.7069,30.4106 31.2069,33.9106 31,37.5C 29.6244,36.2949 28.4577,34.9616 27.5,33.5C 26.0266,13.6353 35.0266,5.30196 54.5,8.5C 58.1516,10.7675 61.6516,13.4342 65,16.5C 67.2047,21.9315 68.038,27.5982 67.5,33.5 Z"/></g>
<g><path style="opacity:0.99" fill="#fdb44a" d="M 67.5,33.5 C 68.1174,33.6107 68.6174,33.944 69,34.5C 69.6667,36.5 69.6667,38.5 69,40.5C 67.9887,41.3366 66.8221,41.67 65.5,41.5C 65.2275,47.4137 62.5608,51.747 57.5,54.5C 50.8047,58.4318 44.1381,58.4318 37.5,54.5C 32.4392,51.747 29.7725,47.4137 29.5,41.5C 28.1779,41.67 27.0113,41.3366 26,40.5C 25.3333,38.5 25.3333,36.5 26,34.5C 26.3826,33.944 26.8826,33.6107 27.5,33.5C 28.4577,34.9616 29.6244,36.2949 31,37.5C 31.2069,33.9106 31.7069,30.4106 32.5,27C 40,24.5 47.5,22 55,19.5C 57.9512,21.4474 60.6178,23.7807 63,26.5C 63.3333,30.1667 63.6667,33.8333 64,37.5C 65.3756,36.2949 66.5423,34.9616 67.5,33.5 Z"/></g>
<g><path style="opacity:1" fill="#804d1c" d="M 38.5,35.5 C 41.8606,36.2032 42.1939,37.5365 39.5,39.5C 37.3576,38.5629 37.0243,37.2296 38.5,35.5 Z"/></g>
<g><path style="opacity:1" fill="#804d1c" d="M 54.5,35.5 C 57.8606,36.2032 58.1939,37.5365 55.5,39.5C 53.3576,38.5629 53.0243,37.2296 54.5,35.5 Z"/></g>
<g><path style="opacity:1" fill="#fa9706" d="M 37.5,54.5 C 44.1381,58.4318 50.8047,58.4318 57.5,54.5C 57.5,56.8333 57.5,59.1667 57.5,61.5C 53.8992,69.6309 48.2326,71.4643 40.5,67C 39.3606,65.2196 38.3606,63.3863 37.5,61.5C 37.5,59.1667 37.5,56.8333 37.5,54.5 Z"/></g>
<g><path style="opacity:0.981" fill="#4ec2f6" d="M 33.5,62.5 C 38.5293,73.8969 46.5293,76.3969 57.5,70C 59.4962,67.8377 60.8295,65.3377 61.5,62.5C 73.716,66.3795 79.716,74.7129 79.5,87.5C 58.1667,87.5 36.8333,87.5 15.5,87.5C 15.284,74.7129 21.284,66.3795 33.5,62.5 Z"/></g>
<g><path style="opacity:1" fill="#165d9c" d="M 37.5,61.5 C 38.3606,63.3863 39.3606,65.2196 40.5,67C 48.2326,71.4643 53.8992,69.6309 57.5,61.5C 59.099,61.2322 60.4324,61.5655 61.5,62.5C 60.8295,65.3377 59.4962,67.8377 57.5,70C 46.5293,76.3969 38.5293,73.8969 33.5,62.5C 34.5676,61.5655 35.901,61.2322 37.5,61.5 Z"/></g>
</svg>
