<?xml version="1.0" encoding="UTF-8"?>
<!DOCTYPE svg PUBLIC "-//W3C//DTD SVG 1.1//EN" "http://www.w3.org/Graphics/SVG/1.1/DTD/svg11.dtd">
<svg xmlns="http://www.w3.org/2000/svg" version="1.1" width="96px" height="96px" style="shape-rendering:geometricPrecision; text-rendering:geometricPrecision; image-rendering:optimizeQuality; fill-rule:evenodd; clip-rule:evenodd" xmlns:xlink="http://www.w3.org/1999/xlink">
<g><path style="opacity:0.986" fill="#47606d" d="M 74.5,12.5 C 77.3296,18.8302 80.663,24.8302 84.5,30.5C 86.2329,34.916 84.8995,36.5826 80.5,35.5C 77.8995,28.295 74.7328,21.295 71,14.5C 70.3292,13.7476 69.4959,13.4142 68.5,13.5C 68.4583,11.1511 69.6249,9.81781 72,9.5C 73.7491,9.74831 74.5824,10.7483 74.5,12.5 Z"/></g>
<g><path style="opacity:0.988" fill="#2195f2" d="M 68.5,13.5 C 69.4959,13.4142 70.3292,13.7476 71,14.5C 74.7328,21.295 77.8995,28.295 80.5,35.5C 73.6259,39.1038 66.6259,42.4371 59.5,45.5C 55.1362,47.3437 51.1362,49.677 47.5,52.5C 46.8333,52.8333 46.1667,53.1667 45.5,53.5C 41.563,45.9594 37.8963,38.2928 34.5,30.5C 45.8333,24.8333 57.1667,19.1667 68.5,13.5 Z"/></g>
<g><path style="opacity:0.93" fill="#8fc6f2" d="M 74.5,12.5 C 79.8914,17.2762 83.2247,23.2762 84.5,30.5C 80.663,24.8302 77.3296,18.8302 74.5,12.5 Z"/></g>
<g><path style="opacity:0.975" fill="#435a66" d="M 34.5,30.5 C 37.8963,38.2928 41.563,45.9594 45.5,53.5C 44.2794,54.0283 43.1127,54.695 42,55.5C 41.1482,54.4293 40.3149,53.4293 39.5,52.5C 38.3594,47.2097 36.3594,42.2097 33.5,37.5C 33.0431,36.7025 32.3764,36.3691 31.5,36.5C 29.7933,33.246 30.7933,31.246 34.5,30.5 Z"/></g>
<g><path style="opacity:0.978" fill="#2195f1" d="M 31.5,36.5 C 32.3764,36.3691 33.0431,36.7025 33.5,37.5C 36.3594,42.2097 38.3594,47.2097 39.5,52.5C 36.2971,53.6829 33.1305,55.0163 30,56.5C 29.2352,56.4301 28.7352,56.0967 28.5,55.5C 27.0249,51.2165 25.0249,47.2165 22.5,43.5C 22.4142,42.5041 22.7476,41.6708 23.5,41C 26.3559,39.7413 29.0226,38.2413 31.5,36.5 Z"/></g>
<g><path style="opacity:0.977" fill="#455a65" d="M 22.5,43.5 C 25.0249,47.2165 27.0249,51.2165 28.5,55.5C 25.8333,56.8333 23.1667,58.1667 20.5,59.5C 17.4598,56.0864 15.4598,52.0864 14.5,47.5C 17.1667,46.1667 19.8333,44.8333 22.5,43.5 Z"/></g>
<g><path style="opacity:0.931" fill="#5f7c8a" d="M 14.5,47.5 C 15.4598,52.0864 17.4598,56.0864 20.5,59.5C 20.2381,61.5638 19.0714,62.8971 17,63.5C 14.1096,58.8864 11.6096,54.0531 9.5,49C 10.7428,46.6974 12.4094,46.1974 14.5,47.5 Z"/></g>
<g><path style="opacity:1" fill="#5c7887" d="M 59.5,45.5 C 59.6655,49.5138 59.4988,53.5138 59,57.5C 56.5397,58.755 55.373,60.755 55.5,63.5C 56.8333,63.5 58.1667,63.5 59.5,63.5C 59.5,64.8333 59.5,66.1667 59.5,67.5C 58.5,67.5 57.5,67.5 56.5,67.5C 54.5,67.5 52.5,67.5 50.5,67.5C 49.5,67.5 48.5,67.5 47.5,67.5C 47.5,66.1667 47.5,64.8333 47.5,63.5C 48.8333,63.5 50.1667,63.5 51.5,63.5C 51.627,60.755 50.4603,58.755 48,57.5C 47.5065,55.8659 47.3398,54.1992 47.5,52.5C 51.1362,49.677 55.1362,47.3437 59.5,45.5 Z"/></g>
<g><path style="opacity:1" fill="#c7d2d6" d="M 52.5,51.5 C 55.8606,52.2032 56.1939,53.5365 53.5,55.5C 51.3576,54.5629 51.0243,53.2296 52.5,51.5 Z"/></g>
<g><path style="opacity:0.874" fill="#455963" d="M 50.5,67.5 C 52.5,67.5 54.5,67.5 56.5,67.5C 59.9131,72.6481 63.5798,77.6481 67.5,82.5C 65.9255,83.6309 64.2588,83.7975 62.5,83C 60.3333,80.1667 58.1667,77.3333 56,74.5C 55.5014,78.1516 55.3347,81.8183 55.5,85.5C 54.1667,85.5 52.8333,85.5 51.5,85.5C 51.6653,81.8183 51.4986,78.1516 51,74.5C 48.8333,77.3333 46.6667,80.1667 44.5,83C 42.7412,83.7975 41.0745,83.6309 39.5,82.5C 43.4202,77.6481 47.0869,72.6481 50.5,67.5 Z"/></g>
</svg>
