<?xml version="1.0" encoding="UTF-8"?>
<!DOCTYPE svg PUBLIC "-//W3C//DTD SVG 1.1//EN" "http://www.w3.org/Graphics/SVG/1.1/DTD/svg11.dtd">
<svg xmlns="http://www.w3.org/2000/svg" version="1.1" width="96px" height="96px" style="shape-rendering:geometricPrecision; text-rendering:geometricPrecision; image-rendering:optimizeQuality; fill-rule:evenodd; clip-rule:evenodd" xmlns:xlink="http://www.w3.org/1999/xlink">
<g><path style="opacity:1" fill="#5e35b1" d="M 29.5,17.5 C 25.5,17.5 21.5,17.5 17.5,17.5C 17.5,15.5 17.5,13.5 17.5,11.5C 21.5,11.5 25.5,11.5 29.5,11.5C 29.5,13.5 29.5,15.5 29.5,17.5 Z"/></g>
<g><path style="opacity:1" fill="#8f6dca" d="M 17.5,17.5 C 21.5,17.5 25.5,17.5 29.5,17.5C 29.5,18.8333 29.5,20.1667 29.5,21.5C 25.5,21.5 21.5,21.5 17.5,21.5C 17.5,20.1667 17.5,18.8333 17.5,17.5 Z"/></g>
<g><path style="opacity:1" fill="#5e35b1" d="M 17.5,21.5 C 21.5,21.5 25.5,21.5 29.5,21.5C 29.5,30.1667 29.5,38.8333 29.5,47.5C 25.5,47.5 21.5,47.5 17.5,47.5C 17.5,38.8333 17.5,30.1667 17.5,21.5 Z"/></g>
<g><path style="opacity:1" fill="#39903d" d="M 33.5,21.5 C 34.8333,21.5 36.1667,21.5 37.5,21.5C 37.5,33.5 37.5,45.5 37.5,57.5C 36.1667,57.5 34.8333,57.5 33.5,57.5C 33.5,45.5 33.5,33.5 33.5,21.5 Z"/></g>
<g><path style="opacity:1" fill="#54b157" d="M 45.5,23.5 C 45.5,34.8333 45.5,46.1667 45.5,57.5C 42.8333,57.5 40.1667,57.5 37.5,57.5C 37.5,45.5 37.5,33.5 37.5,21.5C 36.1667,21.5 34.8333,21.5 33.5,21.5C 33.5,18.1667 33.5,14.8333 33.5,11.5C 37.5,11.5 41.5,11.5 45.5,11.5C 45.5,15.5 45.5,19.5 45.5,23.5 Z"/></g>
<g><path style="opacity:1" fill="#fe8a7f" d="M 57.5,29.5 C 57.5,30.8333 57.5,32.1667 57.5,33.5C 54.8333,33.5 52.1667,33.5 49.5,33.5C 49.5,32.1667 49.5,30.8333 49.5,29.5C 52.1667,29.5 54.8333,29.5 57.5,29.5 Z"/></g>
<g><path style="opacity:0.975" fill="#19b9cf" d="M 70.5,57.5 C 69.1667,57.5 67.8333,57.5 66.5,57.5C 64.1006,47.8776 61.1006,38.5443 57.5,29.5C 57.5,27.8333 57.5,26.1667 57.5,24.5C 61.7862,23.2934 66.1195,22.2934 70.5,21.5C 73.7088,32.4573 76.7088,43.4573 79.5,54.5C 76.2154,54.9281 73.2154,55.9281 70.5,57.5 Z"/></g>
<g><path style="opacity:1" fill="#e63b34" d="M 45.5,23.5 C 49.7016,23.1832 53.7016,23.5166 57.5,24.5C 57.5,26.1667 57.5,27.8333 57.5,29.5C 54.8333,29.5 52.1667,29.5 49.5,29.5C 49.5,30.8333 49.5,32.1667 49.5,33.5C 52.1667,33.5 54.8333,33.5 57.5,33.5C 57.5,38.1667 57.5,42.8333 57.5,47.5C 54.8333,47.5 52.1667,47.5 49.5,47.5C 49.5,48.8333 49.5,50.1667 49.5,51.5C 52.1667,51.5 54.8333,51.5 57.5,51.5C 57.5,53.5 57.5,55.5 57.5,57.5C 53.5,57.5 49.5,57.5 45.5,57.5C 45.5,46.1667 45.5,34.8333 45.5,23.5 Z"/></g>
<g><path style="opacity:1" fill="#8f6dca" d="M 17.5,47.5 C 21.5,47.5 25.5,47.5 29.5,47.5C 29.5,48.8333 29.5,50.1667 29.5,51.5C 25.5,51.5 21.5,51.5 17.5,51.5C 17.5,50.1667 17.5,48.8333 17.5,47.5 Z"/></g>
<g><path style="opacity:1" fill="#fe8a7f" d="M 57.5,47.5 C 57.5,48.8333 57.5,50.1667 57.5,51.5C 54.8333,51.5 52.1667,51.5 49.5,51.5C 49.5,50.1667 49.5,48.8333 49.5,47.5C 52.1667,47.5 54.8333,47.5 57.5,47.5 Z"/></g>
<g><path style="opacity:1" fill="#5e35b1" d="M 17.5,51.5 C 21.5,51.5 25.5,51.5 29.5,51.5C 29.5,53.5 29.5,55.5 29.5,57.5C 25.5,57.5 21.5,57.5 17.5,57.5C 17.5,55.5 17.5,53.5 17.5,51.5 Z"/></g>
<g><path style="opacity:1" fill="#fea000" d="M 17.5,57.5 C 21.5,57.5 25.5,57.5 29.5,57.5C 30.8333,57.5 32.1667,57.5 33.5,57.5C 34.8333,57.5 36.1667,57.5 37.5,57.5C 40.1667,57.5 42.8333,57.5 45.5,57.5C 49.5,57.5 53.5,57.5 57.5,57.5C 60.5,57.5 63.5,57.5 66.5,57.5C 67.8333,57.5 69.1667,57.5 70.5,57.5C 75.5,57.5 80.5,57.5 85.5,57.5C 85.5,60.8333 85.5,64.1667 85.5,67.5C 82.8333,67.5 80.1667,67.5 77.5,67.5C 75.5,67.5 73.5,67.5 71.5,67.5C 55.5,67.5 39.5,67.5 23.5,67.5C 21.5,67.5 19.5,67.5 17.5,67.5C 14.8333,67.5 12.1667,67.5 9.5,67.5C 9.5,64.1667 9.5,60.8333 9.5,57.5C 12.1667,57.5 14.8333,57.5 17.5,57.5 Z"/></g>
<g><path style="opacity:1" fill="#ee6c00" d="M 17.5,67.5 C 19.5,67.5 21.5,67.5 23.5,67.5C 23.5,72.8333 23.5,78.1667 23.5,83.5C 21.5,83.5 19.5,83.5 17.5,83.5C 17.5,78.1667 17.5,72.8333 17.5,67.5 Z"/></g>
<g><path style="opacity:1" fill="#ee6c00" d="M 71.5,67.5 C 73.5,67.5 75.5,67.5 77.5,67.5C 77.5,72.8333 77.5,78.1667 77.5,83.5C 75.5,83.5 73.5,83.5 71.5,83.5C 71.5,78.1667 71.5,72.8333 71.5,67.5 Z"/></g>
</svg>
