<?xml version="1.0" encoding="UTF-8"?>
<!DOCTYPE svg PUBLIC "-//W3C//DTD SVG 1.1//EN" "http://www.w3.org/Graphics/SVG/1.1/DTD/svg11.dtd">
<svg xmlns="http://www.w3.org/2000/svg" version="1.1" width="96px" height="96px" style="shape-rendering:geometricPrecision; text-rendering:geometricPrecision; image-rendering:optimizeQuality; fill-rule:evenodd; clip-rule:evenodd" xmlns:xlink="http://www.w3.org/1999/xlink">
<g><path style="opacity:0.981" fill="#feb64d" d="M 38.5,7.5 C 45.9059,7.15199 53.2392,7.65199 60.5,9C 72.83,14.3575 79.33,23.8575 80,37.5C 83.3029,41.7745 85.8029,46.4412 87.5,51.5C 86.4583,55.382 83.7916,57.382 79.5,57.5C 79.6314,63.2213 79.1314,68.888 78,74.5C 76.8333,76.3333 75.3333,77.8333 73.5,79C 69.577,79.7927 65.7436,79.626 62,78.5C 61.502,81.4816 61.3354,84.4816 61.5,87.5C 49.5,87.5 37.5,87.5 25.5,87.5C 25.529,81.7898 25.029,76.1231 24,70.5C 20.3938,63.6214 17.0605,56.6214 14,49.5C 10.6634,28.4763 18.8301,14.4763 38.5,7.5 Z"/></g>
<g><path style="opacity:1" fill="#576f79" d="M 42.5,19.5 C 45.8333,19.5 49.1667,19.5 52.5,19.5C 51.4545,23.7555 52.9545,26.4222 57,27.5C 58.7983,26.4962 60.6316,25.9962 62.5,26C 64.2495,28.0859 65.5828,30.4192 66.5,33C 64.9474,35.048 63.6141,37.2147 62.5,39.5C 63.0476,41.556 64.2142,43.2226 66,44.5C 66.6667,45.5 66.6667,46.5 66,47.5C 64.7316,49.7173 63.2316,51.7173 61.5,53.5C 55.0209,50.2408 52.0209,52.2408 52.5,59.5C 49.1667,59.5 45.8333,59.5 42.5,59.5C 43.5455,55.2445 42.0455,52.5778 38,51.5C 36.2017,52.5038 34.3684,53.0038 32.5,53C 30.7505,50.9141 29.4172,48.5808 28.5,46C 30.279,43.8958 31.6123,41.5624 32.5,39C 27.2155,34.2701 27.5488,29.7701 33.5,25.5C 39.9791,28.7592 42.9791,26.7592 42.5,19.5 Z"/></g>
<g><path style="opacity:1" fill="#475b64" d="M 44.5,29.5 C 53.5356,28.7266 57.7023,32.7266 57,41.5C 55.8501,46.7573 52.5168,49.4239 47,49.5C 37.8029,46.7637 35.4695,41.0971 40,32.5C 41.6516,31.6006 43.1516,30.6006 44.5,29.5 Z"/></g>
<g><path style="opacity:1" fill="#f8b34e" d="M 44.5,33.5 C 52.8068,33.2804 55.1402,36.7804 51.5,44C 45.7867,47.0594 42.4533,45.3927 41.5,39C 41.8627,36.8077 42.8627,34.9744 44.5,33.5 Z"/></g>
</svg>
